<svg width="182" height="200" viewBox="0 0 182 200" fill="none" xmlns="http://www.w3.org/2000/svg">
<g id="heart">
<rect width="181.431" height="200" fill="#F56762"/>
<g id="top-right">
<rect id="Rectangle 13" x="94.9772" y="12.7854" width="56.0228" height="91.6865" fill="#F56762"/>
<path id="Vector" d="M97.3619 13.0073C96.0427 13.2102 94.8251 13.7379 94.8251 14.0626C94.8251 14.2858 94.886 14.3264 94.9874 14.164C95.0686 14.0423 95.5151 13.7785 96.0021 13.5958C96.7124 13.3117 97.2198 13.2711 98.5389 13.3726C102.375 13.677 109.031 15.1788 109.031 15.7267C109.031 15.9094 108.95 16.1326 108.848 16.2341C108.686 16.437 107.813 19.9073 107.002 23.6415C106.149 27.5989 105.52 33.7886 105.967 33.7886C106.271 33.7886 106.291 33.7277 106.697 30.8459C107.184 27.3553 108.828 18.1214 109.234 16.4979C109.376 15.9702 109.437 15.402 109.376 15.2396C109.173 14.7323 107.144 13.9205 104.972 13.4943C102.922 13.0682 98.6607 12.8043 97.3619 13.0073Z" fill="#FF0051"/>
<path id="Vector_2" d="M98.4577 14.509C99.2492 14.854 105.013 15.5035 104.749 15.2193C104.566 15.0367 101.563 14.5902 99.5942 14.4279C98.3968 14.3467 98.0924 14.367 98.4577 14.509Z" fill="#FF0051"/>
<path id="Vector_3" d="M95.3324 18.6085C95.0077 23.7835 94.9265 26.0768 95.0889 26.0768C95.17 26.0768 95.2309 26.0159 95.2512 25.9144C95.2512 25.8333 95.2918 25.5897 95.3324 25.3665C95.4745 24.6359 95.6977 16.3355 95.5962 16.3355C95.515 16.3355 95.4136 17.3705 95.3324 18.6085Z" fill="#FF0051"/>
<path id="Vector_4" d="M106.717 17.5329C106.657 17.6141 106.474 18.4664 106.312 19.4203C106.149 20.3538 105.865 21.7541 105.703 22.5253C105.337 24.23 105.256 24.8997 104.871 28.715C104.607 31.4345 104.607 31.9824 104.871 31.7186C104.932 31.678 105.195 30.0342 105.459 28.0859C105.743 26.1377 106.149 23.4994 106.352 22.2209C107.022 18.3853 107.123 16.8429 106.717 17.5329Z" fill="#FF0051"/>
<path id="Vector_5" d="M109.559 21.7338C109.031 21.8962 108.645 22.0991 108.706 22.16C108.767 22.2412 109.173 22.1803 109.599 22.0382C110.513 21.7338 112.035 21.815 114.612 22.302C117.859 22.9312 120.152 23.7429 119.767 24.1488C119.706 24.2097 118.894 23.9662 117.961 23.6415C116.053 22.9312 112.928 22.5456 110.898 22.7485C110.005 22.85 109.538 22.8094 109.315 22.6065C109.031 22.3832 109.011 22.4238 109.133 23.0529C109.214 23.4385 109.173 24.6765 109.051 25.7724C108.767 28.4918 108.564 31.0692 108.544 32.0636C108.524 32.5101 108.463 32.9768 108.361 33.1189C108.138 33.4639 108.341 33.5045 110.046 33.5654C110.878 33.5857 111.73 33.6465 111.933 33.7074C112.359 33.8495 112.4 33.4639 111.953 33.3015C111.771 33.2407 111.06 33.1798 110.35 33.1798C109.64 33.1798 109.011 33.0986 108.93 32.9768C108.869 32.8754 108.869 32.5506 108.95 32.2462L109.092 31.6983L111.243 31.8403C112.42 31.9215 113.719 32.0027 114.105 32.0636C114.49 32.1042 114.328 32.023 113.699 31.8606C113.09 31.6983 111.791 31.5156 110.837 31.4345C109.112 31.3127 109.072 31.2924 109.133 30.8053C109.214 30.0545 109.437 29.9733 110.655 30.1356C111.933 30.3386 114.023 30.3995 113.861 30.2371C113.8 30.1762 112.948 30.0342 111.953 29.9327C109.275 29.6283 109.234 29.6283 109.234 28.8977C109.234 28.5324 109.356 28.2483 109.579 28.1671C109.904 28.0453 114.267 28.4309 114.896 28.6541C115.119 28.7353 115.16 28.715 115.018 28.5527C114.916 28.4309 113.821 28.1874 112.583 28.0047C109.66 27.5583 109.335 27.4568 109.335 26.9697C109.335 26.6044 109.498 26.5841 112.075 26.6247C114.166 26.645 114.551 26.6044 113.699 26.4827C113.09 26.4015 112.075 26.3 111.466 26.3C109.823 26.2594 109.437 26.1174 109.437 25.5288C109.437 25.0418 109.478 25.0215 110.411 25.1027C111.405 25.2041 113.699 24.8997 113.699 24.6765C113.699 24.6156 112.786 24.575 111.669 24.6156L109.64 24.6765V23.9459V23.195L112.44 23.3371C114.713 23.4385 115.606 23.5806 117.352 24.0879C118.529 24.4532 119.503 24.7374 119.523 24.7374C119.543 24.7577 119.341 25.5085 119.056 26.4421C118.793 27.3756 118.427 29.3239 118.245 30.8053C117.92 33.5451 117.92 34.7018 118.366 39.3695C118.63 42.2513 118.488 44.1184 117.94 44.8287C117.534 45.336 111.365 48.4816 107.529 50.1052C105.216 51.0996 102.882 52.2564 102.232 52.7434C101.847 53.0276 101.847 53.0479 102.334 52.9261C102.618 52.8652 102.963 52.7231 103.105 52.6014C103.247 52.4999 103.389 52.439 103.45 52.4999C103.491 52.5405 102.699 53.0682 101.664 53.6567C98.5998 55.4426 97.8489 55.9905 96.3066 57.5329C95.2715 58.5679 94.8251 59.1767 94.8251 59.5014C94.8251 59.9479 95.1092 59.745 96.8748 58.0605C100.974 54.1843 105.825 51.3228 114.551 47.5887C119.3 45.5593 119.604 44.9302 118.853 38.8622C118.387 34.9048 118.833 29.405 119.97 25.3665C120.315 24.1285 120.335 23.885 120.091 23.5197C119.746 22.9718 118.468 22.3426 116.844 21.8962C115.079 21.4294 110.837 21.3279 109.559 21.7338Z" fill="#FF0051"/>
<path id="Vector_6" d="M141.076 22.6673C141.015 23.2356 141.177 23.5603 142.009 24.7374C143.754 27.2336 147.123 33.4639 148.28 36.3863C149.275 38.8622 150.066 42.3731 149.985 43.956L149.924 45.1737L148.199 43.6313C147.245 42.7587 146.129 41.6019 145.682 41.0134C144.83 39.8972 143.125 36.5689 143.125 36.021C143.125 35.6963 142.537 34.7627 142.517 35.0671C142.517 35.3107 143.349 37.8475 143.754 38.8013C143.957 39.2884 144.079 39.6739 144.039 39.6739C143.876 39.6739 142.719 37.2589 142.719 36.9342C142.719 36.7719 142.618 36.6298 142.496 36.6298C142.192 36.6298 142.415 37.4619 143.105 38.9636C143.795 40.4654 146.312 43.1849 148.26 44.5649L149.66 45.539L148.179 46.229C146.393 47.0611 145.114 47.609 141.705 49.0093C138.478 50.3487 137.605 50.8561 136.246 52.1346C134.825 53.4943 132.938 55.8688 133.019 56.1529C133.059 56.2747 133.303 56.0717 133.526 55.6861C134.155 54.6917 137.524 51.4446 137.95 51.4446C138.214 51.4446 138.031 51.7084 137.341 52.3984C135.434 54.3061 134.703 55.2599 131.03 60.6379C130.279 61.7338 129.67 62.7688 129.67 62.9109C129.67 63.0732 129.609 63.1544 129.528 63.1138C129.447 63.0732 129.183 63.3979 128.94 63.8241C128.696 64.2706 127.763 65.4071 126.89 66.3203C125.185 68.1265 123.826 68.9992 121.816 69.5674C119.361 70.298 117.697 70.7445 114.226 71.6374C111.02 72.4492 109.457 72.9768 108.118 73.6668C107.022 74.2148 104.343 77.9692 102.943 80.9119C102.395 82.0687 101.339 84.8287 100.589 87.0611C99.858 89.2934 98.62 92.5405 97.8691 94.2655C95.1091 100.557 94.9874 100.902 94.8859 102.891C94.825 103.905 94.8453 104.676 94.9062 104.616C94.9671 104.555 95.3729 103.134 95.8194 101.47C96.5906 98.5679 97.3821 96.3761 98.6809 93.4538C99.0056 92.7232 99.7362 90.8561 100.304 89.2934C100.852 87.7308 101.603 85.681 101.948 84.7272C102.801 82.3934 104.546 78.781 105.5 77.401C107.306 74.7627 109.193 73.3827 111.081 73.2407C111.507 73.2204 111.933 73.1392 112.035 73.0783C112.136 73.0174 114.348 72.4289 116.966 71.7592C123.643 70.0342 124.617 69.7906 125.875 69.5065C129.995 68.5933 133.019 66.6653 135.048 63.6415C135.698 62.6876 138.336 60.1509 138.64 60.2117C138.985 60.2726 139.594 61.4294 139.777 62.3021L139.899 62.9109L139.554 62.2615C139.351 61.8962 139.067 61.5512 138.904 61.4903C138.234 61.2467 136.875 62.5456 134.703 65.4883C133.973 66.4827 133.465 67.2741 133.587 67.2741C133.689 67.2741 134.399 66.4218 135.17 65.4071C136.814 63.2153 138.153 61.7947 138.559 61.7947C138.945 61.7947 139.472 63.0529 139.472 63.9662C139.472 65.6303 138.701 66.4218 134.318 69.1209C132.999 69.9327 131.821 70.8053 131.7 71.0692C131.537 71.4345 131.619 71.7389 132.227 72.7536C133.141 74.2757 133.567 75.6557 133.729 77.6242C133.871 79.6334 133.749 79.7551 131.964 79.2681C131.233 79.0651 129.914 78.8419 129.021 78.7607C128.128 78.6795 126.707 78.5375 125.855 78.4157C124.455 78.2331 119.848 77.9692 112.948 77.6851L110.452 77.5836V76.8327C110.472 76.4269 110.634 75.5948 110.857 74.986C111.06 74.3771 111.202 73.8495 111.162 73.7886C110.837 73.4842 106.169 80.4451 104.769 83.3269C104.201 84.4837 103.653 85.5796 103.552 85.7419C102.902 86.7769 100.954 91.0184 100.365 92.642C99.4724 95.1382 98.5794 98.4258 98.275 100.354C98.133 101.186 97.8083 102.464 97.5444 103.175C96.9762 104.697 96.9762 104.616 97.3618 104.616C97.5241 104.616 97.6662 104.474 97.6662 104.311C97.6662 103.926 97.9909 103.926 98.1533 104.311C98.2141 104.474 98.3765 104.616 98.5389 104.616C98.7418 104.616 98.7824 104.352 98.6606 103.357C98.4577 101.632 98.8433 99.5014 100.142 95.0164L100.771 92.8043L101.258 94.0017C101.522 94.6511 101.928 95.5441 102.172 95.9905C103.409 98.365 103.612 100.11 102.943 102.566C102.699 103.378 102.557 104.088 102.598 104.129C102.638 104.169 102.922 103.439 103.247 102.485C103.734 101.044 103.795 100.597 103.694 99.5217C103.612 98.8317 103.409 97.9997 103.247 97.6547C102.74 96.64 102.902 96.5588 103.531 97.5329C103.836 98.0403 104.343 99.0753 104.668 99.8464C105.134 101.044 105.216 101.45 105.114 102.586C105.013 103.905 105.013 103.905 105.277 103.094C105.419 102.647 105.561 101.937 105.561 101.511C105.581 100.577 104.647 98.2838 103.552 96.5994C102.334 94.7323 101.705 93.1899 101.644 91.9317C101.563 90.8967 101.603 90.8155 101.908 91.0793C102.476 91.5867 104.587 92.5608 106.677 93.2508C107.773 93.6364 108.95 94.1235 109.295 94.367C111.284 95.6861 113.475 100.334 113.516 103.276C113.536 104.595 113.557 104.656 113.739 104.007C113.942 103.296 113.841 100.577 113.577 99.4609L113.435 98.8723L114.632 99.542C115.282 99.9276 115.992 100.313 116.175 100.435C116.418 100.577 116.601 100.577 116.743 100.435C117.027 100.151 115.241 99.0347 114.876 99.2579C114.754 99.3391 114.713 99.3188 114.795 99.1767C114.855 99.055 114.734 98.8926 114.47 98.8114C113.841 98.6085 113.252 97.9794 112.42 96.5994C112.035 95.9297 111.426 95.1179 111.081 94.7932C110.33 94.0829 110.431 93.819 111.324 94.1032C112.156 94.367 114.673 94.8541 115.282 94.8744C115.545 94.8744 115.688 94.7932 115.627 94.6714C115.566 94.5496 115.079 94.4685 114.551 94.4482C114.023 94.4482 113.415 94.367 113.191 94.2655C112.826 94.1235 112.846 94.1032 113.394 93.9611C114.551 93.6973 114.673 93.6364 115.444 93.0682C115.89 92.7637 116.418 92.1955 116.621 91.8099C116.986 91.1402 116.966 91.1605 116.256 91.9723C114.916 93.5146 113.049 94.022 110.472 93.5552C108.24 93.1696 103.43 91.4649 102.577 90.7952C101.827 90.2067 101.847 90.0646 103.105 87.8322L104.039 86.1884L105.134 87.1828C105.743 87.7511 106.291 88.1367 106.352 88.0758C106.413 88.0149 106.088 87.6496 105.622 87.264C105.175 86.8581 104.647 86.2696 104.485 85.9246C104.181 85.336 104.201 85.2752 105.216 83.5501C106.981 80.5669 107.489 80.1204 109.883 79.5522C112.522 78.9434 115.525 79.3492 118.366 80.709C119.767 81.3787 120.416 81.8657 121.816 83.266C122.77 84.2199 123.623 84.9707 123.704 84.9505C123.805 84.9302 123.826 85.0113 123.765 85.1128C123.683 85.2143 124.049 85.9246 124.576 86.6755C125.084 87.4264 125.916 88.8064 126.443 89.7805C126.951 90.7343 127.56 91.8505 127.803 92.2361C129.305 94.6308 131.071 100.11 131.456 103.459C131.537 104.108 131.639 104.595 131.7 104.534C132.126 104.108 130.929 97.5735 129.934 94.8541C128.635 91.3634 125.388 85.7013 123.562 83.7531C122.161 82.2716 119.625 80.4857 117.879 79.7551C114.734 78.4563 111.081 78.3345 108.686 79.4507C107.976 79.7754 107.407 79.9581 107.407 79.8769C107.407 79.7754 107.671 79.4304 107.976 79.0854C108.747 78.2533 110.33 77.9489 112.988 78.1113C118.711 78.436 120.193 78.5983 120.477 78.8825C120.761 79.1869 123.257 79.8769 125.023 80.161L125.875 80.3031L125.368 80.709C125.084 80.9322 124.861 81.2163 124.861 81.3584C124.861 81.4801 125.327 82.0484 125.896 82.5963C127.966 84.646 130.665 88.8064 132.268 92.439C133.546 95.3614 135.008 100.049 135.373 102.404C135.596 103.865 135.799 104.616 135.961 104.616C136.286 104.616 136.327 104.94 135.637 101.429C134.744 97.0052 133.648 93.7379 131.659 89.7805C130.096 86.6146 128.94 84.8287 127.012 82.6166C125.875 81.2975 125.814 81.2163 126.18 80.9525C126.707 80.5669 127.377 80.5872 130.624 81.1757C132.187 81.4598 133.526 81.6831 133.607 81.6831C133.668 81.6831 133.973 81.4395 134.257 81.1554C135.819 79.6131 135.231 75.5136 132.978 72.2665C132.633 71.7389 132.41 71.2315 132.471 71.1301C132.532 71.0286 133.201 70.6024 133.952 70.1965C134.703 69.7703 136.144 68.8977 137.159 68.2686C139.188 66.9494 139.675 66.3203 140.081 64.4127C140.386 63.0732 140.264 62.3021 139.594 60.8409C139.168 59.9479 138.985 59.745 138.295 59.542C137.199 59.2173 135.86 59.542 133.506 60.6988C132.451 61.2062 131.497 61.612 131.375 61.5715C131.172 61.4903 131.882 60.4756 134.926 56.4167C136.631 54.1438 139.594 51.1199 140.852 50.369C141.482 49.9834 143.105 49.2325 144.444 48.7049C147.367 47.5481 149.883 46.3102 150.431 45.7622C151.568 44.6257 150.269 38.4766 147.813 33.2812C146.109 29.6892 141.725 22.4238 141.258 22.4238C141.177 22.4238 141.076 22.5456 141.076 22.6673ZM142.517 24.7374L142.963 25.5694L142.456 24.9606C142.172 24.6156 141.745 23.9865 141.502 23.54L141.076 22.7282L141.563 23.3168C141.847 23.6212 142.273 24.2706 142.517 24.7374ZM137.585 60.1914C137.159 60.4147 136.144 61.267 135.353 62.0991C134.5 62.9515 133.161 64.0271 132.166 64.6359C129.772 66.0971 128.919 66.6856 128.919 66.8886C128.919 67.3756 131.903 65.7318 133.141 64.575C133.486 64.23 133.79 64.0271 133.79 64.1488C133.79 64.7171 130.076 67.7612 128.818 68.2483C127.925 68.5933 124.84 69.3239 124.637 69.263C124.536 69.2224 125.043 68.7759 125.753 68.2483C127.154 67.2336 128.879 65.3056 130.198 63.2559C130.847 62.2615 131.131 61.9976 131.537 61.9976C132.106 61.9773 133.161 61.612 135.819 60.4959C137.727 59.7044 138.884 59.5014 137.585 60.1914ZM110.228 76.3863C110.046 77.2386 109.883 77.5228 109.376 77.8272C109.031 78.0504 108.727 78.1925 108.686 78.1519C108.645 78.1113 108.869 77.6445 109.153 77.0966C110.391 74.8439 110.594 74.7018 110.228 76.3863ZM134.48 78.6795C134.5 80.0189 134.439 80.3234 134.074 80.6684C133.668 81.0742 133.628 81.0742 132.248 80.7495C130.279 80.3031 127.539 79.8566 126.606 79.8566C125.408 79.8566 121.268 79.0448 120.863 78.7201C120.558 78.4969 120.558 78.4563 120.822 78.436C121.41 78.436 127.823 79.2478 130.624 79.6942C134.155 80.2422 134.054 80.3031 133.952 77.3198C133.871 75.3107 133.871 75.2904 134.176 76.2036C134.318 76.711 134.46 77.8272 134.48 78.6795Z" fill="#FF0051"/>
<path id="Vector_7" d="M138.864 24.0068C136.976 25.0012 134.683 26.645 132.471 28.573C130.34 30.44 123.968 36.8936 122.709 38.4563C122.1 39.2072 121.309 39.9784 120.944 40.161C120.335 40.4654 120.315 40.4857 120.802 40.4857C121.086 40.4857 121.573 40.3234 121.877 40.1001C122.202 39.8972 124.881 37.2589 127.864 34.2554C134.257 27.7815 135.434 26.7668 138.722 24.8388C139.838 24.1894 140.852 23.3168 140.67 23.1747C140.629 23.1341 139.817 23.5197 138.864 24.0068Z" fill="#FF0051"/>
<path id="Vector_8" d="M96.2457 26.2797C95.7383 26.3609 95.2107 26.3812 95.0889 26.3406C94.886 26.2594 94.8251 26.5436 94.8251 27.3553V28.4512L95.7789 28.2889C97.7069 27.9642 97.7474 27.9439 96.3877 27.9642L95.028 28.0047V27.3553C95.028 26.7465 95.0686 26.7059 95.9818 26.5841C96.5298 26.503 97.2401 26.3609 97.5648 26.2797C98.1127 26.1377 98.1127 26.1174 97.6663 26.1174C97.3822 26.1174 96.753 26.1986 96.2457 26.2797Z" fill="#FF0051"/>
<path id="Vector_9" d="M94.8251 29.5268C94.8251 29.6283 95.3324 29.7297 95.9616 29.7297C96.6516 29.7297 97.0371 29.6486 96.956 29.5268C96.8951 29.405 96.3877 29.3239 95.8195 29.3239C95.2715 29.3239 94.8251 29.405 94.8251 29.5268Z" fill="#FF0051"/>
<path id="Vector_10" d="M128.798 34.6613C125.084 38.436 123.765 39.8566 124.373 39.4507C124.982 39.0448 132.248 31.5562 132.126 31.4548C132.085 31.4142 130.584 32.8551 128.798 34.6613Z" fill="#FF0051"/>
<path id="Vector_11" d="M95.4745 31.6983C94.7236 31.7998 94.5815 32.1651 95.3121 32.1651C96.2862 32.1651 97.646 31.9012 97.5445 31.7389C97.443 31.5562 96.7327 31.5562 95.4745 31.6983Z" fill="#FF0051"/>
<path id="Vector_12" d="M94.8251 33.4842V34.0524L96.063 33.9104C96.753 33.8495 99.1478 33.7683 101.4 33.7683L105.48 33.7277L103.755 33.4639C102.801 33.3218 100.406 33.1189 98.4375 33.058L94.8251 32.9159V33.4842Z" fill="#FF0051"/>
<path id="Vector_13" d="M108.341 34.5801C108.544 34.7627 113.293 35.473 113.455 35.331C113.577 35.2092 112.988 35.0671 110.655 34.7018C108.402 34.3568 108.057 34.3365 108.341 34.5801Z" fill="#FF0051"/>
<path id="Vector_14" d="M117.372 43.6516C116.296 44.4228 112.035 46.1275 106.596 47.9946C99.4318 50.4705 99.6145 50.3893 97.1994 51.5258C96.1036 52.0331 95.1294 52.4593 95.028 52.4593C94.9062 52.4593 94.825 52.8246 94.825 53.2711C94.825 54.2046 94.7844 54.2249 96.6718 52.9667C98.2142 51.952 101.218 50.4299 101.664 50.4299C101.867 50.4299 101.542 50.714 100.913 51.0996C98.4374 52.5405 94.825 55.1788 94.825 55.5441C94.825 55.747 94.8859 55.9093 94.9468 55.9093C95.028 55.9093 95.6368 55.4629 96.3268 54.9352C99.4521 52.4796 99.4724 52.4593 100.426 52.4593C101.421 52.4593 102.151 52.1549 103.552 51.1402C104.769 50.2472 108.26 48.5019 109.985 47.9134C112.664 46.9799 116.459 45.1737 117.413 44.3619C117.879 43.9763 118.245 43.3269 118.021 43.3269C117.92 43.3269 117.636 43.469 117.372 43.6516Z" fill="#FF0051"/>
<path id="Vector_15" d="M109.437 51.1199C107.144 51.9723 105.723 52.6217 103.998 53.6161C102.456 54.509 103.227 54.3264 105.033 53.3726C105.987 52.8652 107.489 52.1752 108.361 51.8505C110.411 51.0996 111.872 50.4705 111.872 50.3284C111.872 50.2675 111.852 50.227 111.832 50.2472C111.791 50.2675 110.715 50.6531 109.437 51.1199Z" fill="#FF0051"/>
<path id="Vector_16" d="M98.133 54.5699C97.8286 54.8338 97.0777 55.3411 96.5094 55.7064C95.9209 56.0514 95.4338 56.437 95.4338 56.5182C95.4338 56.7617 97.9503 55.1585 98.5186 54.5496C99.0868 53.9408 98.8636 53.9408 98.133 54.5699Z" fill="#FF0051"/>
<path id="Vector_17" d="M102.537 54.4888C102.354 54.6105 102.334 54.6917 102.476 54.6917C102.598 54.6917 102.78 54.5902 102.841 54.4888C103.004 54.2452 102.922 54.2452 102.537 54.4888Z" fill="#FF0051"/>
<path id="Vector_18" d="M131.598 57.8779C131.314 58.6085 126.829 65.1635 126.099 65.9347C125.855 66.1783 125.672 66.4624 125.672 66.5435C125.672 67.1524 127.702 64.6562 129.752 61.4903C131.679 58.5273 132.167 57.7561 132.167 57.6344C132.167 57.3705 131.74 57.5735 131.598 57.8779Z" fill="#FF0051"/>
<path id="Vector_19" d="M120.051 75.6963C120.051 76.5892 120.091 76.9342 120.132 76.4472C120.173 75.9804 120.173 75.2498 120.132 74.8236C120.091 74.4177 120.051 74.8033 120.051 75.6963Z" fill="#FF0051"/>
<path id="Vector_20" d="M116.58 74.783C116.58 75.0671 116.621 75.1686 116.682 75.0266C116.723 74.9048 116.723 74.6613 116.682 74.5192C116.621 74.3974 116.58 74.4989 116.58 74.783Z" fill="#FF0051"/>
<path id="Vector_21" d="M116.499 76.1022C116.459 76.4877 116.499 76.8125 116.58 76.8125C116.662 76.8125 116.743 76.4877 116.743 76.1022C116.743 75.7166 116.702 75.3919 116.662 75.3919C116.621 75.3919 116.54 75.7166 116.499 76.1022Z" fill="#FF0051"/>
<path id="Vector_22" d="M117.778 75.7166C117.778 75.9398 117.839 76.0007 117.9 75.8383C117.96 75.6963 117.94 75.5136 117.879 75.4527C117.818 75.3716 117.757 75.4933 117.778 75.7166Z" fill="#FF0051"/>
<path id="Vector_23" d="M113.699 76.6095C113.699 76.711 113.8 76.8125 113.902 76.8125C114.023 76.8125 114.105 76.711 114.105 76.6095C114.105 76.4877 114.023 76.4066 113.902 76.4066C113.8 76.4066 113.699 76.4877 113.699 76.6095Z" fill="#FF0051"/>
<path id="Vector_24" d="M103.024 77.5836C102.963 77.8475 102.598 78.6795 102.232 79.4304C101.542 80.8713 100.995 82.1904 98.8839 87.6699C97.5242 91.1402 96.2051 93.9205 95.3527 95.057C95.0686 95.4426 94.8251 95.9905 94.8251 96.2747C94.8454 97.5532 97.6054 92.2361 99.2695 87.7714C100.284 85.0519 101.502 81.9672 102.72 79.0651C103.065 78.2331 103.308 77.4416 103.267 77.3401C103.207 77.2183 103.105 77.3198 103.024 77.5836Z" fill="#FF0051"/>
<path id="Vector_25" d="M121.411 81.1554C121.411 81.2163 121.674 81.399 122.019 81.5816C122.933 82.0484 124.536 83.7531 125.388 85.1737C125.814 85.884 126.606 87.0408 127.154 87.7714C128.392 89.3949 130.462 93.5146 131.355 96.092C132.085 98.2026 132.288 98.6085 132.065 97.5126C131.233 93.3523 128.026 87.3452 124.576 83.5096C123.562 82.3731 121.411 80.7901 121.411 81.1554Z" fill="#FF0051"/>
<path id="Vector_26" d="M116.093 94.6105C116.235 94.6714 116.418 94.6511 116.479 94.5902C116.56 94.5293 116.438 94.4685 116.215 94.4888C115.992 94.4888 115.931 94.5496 116.093 94.6105Z" fill="#FF0051"/>
<path id="Vector_27" d="M116.865 100.516C116.824 100.597 117.311 101.084 117.981 101.571C119.138 102.424 120.233 103.499 120.741 104.331C120.944 104.656 120.984 104.676 120.984 104.372C121.005 104.189 120.781 103.763 120.497 103.439C120.233 103.114 120.071 102.769 120.152 102.688C120.233 102.586 120.193 102.586 120.051 102.667C119.929 102.728 119.767 102.647 119.706 102.444C119.645 102.241 119.077 101.714 118.468 101.267C117.169 100.334 117.027 100.273 116.865 100.516Z" fill="#FF0051"/>
<path id="Vector_28" d="M133.79 103.56C133.79 104.149 133.871 104.616 133.993 104.616C134.115 104.616 134.135 104.23 134.054 103.641C133.892 102.343 133.79 102.302 133.79 103.56Z" fill="#FF0051"/>
</g>
<g id="bottom-left">
<rect id="Rectangle 15" x="33" y="103" width="62" height="81" fill="#F56762"/>
<path id="Vector_29" d="M32.7753 107.341C32.7753 112.496 33.5059 116.311 35.4338 121.385C35.8803 122.582 36.5297 124.328 36.8747 125.261C39.0056 131.309 43.3486 140.786 46.271 145.799C49.2948 150.994 53.5363 157.123 54.0437 157.022C54.1654 156.981 54.2263 157.083 54.1857 157.225C54.0842 157.489 56.0122 159.843 59.0563 163.171C63.7037 168.265 67.0726 171.309 71.1314 174.11C76.5906 177.884 79.8174 179.954 81.8874 180.949C86.2913 183.1 88.3207 183.668 92.4201 183.871C94.9975 184.013 95.0787 184.013 95.0787 183.607C95.0787 183.201 94.9366 183.181 91.9939 183.1C89.0513 182.998 88.7874 182.958 86.8595 182.268C85.7433 181.862 83.9777 181.172 82.9224 180.725C80.7509 179.792 75.8194 176.951 74.7844 176.038L74.0741 175.408L74.9873 175.997C76.3065 176.849 79.7971 178.798 80.893 179.264C81.4003 179.488 83.0442 180.056 84.5459 180.502C86.0477 180.949 87.3871 181.375 87.5292 181.416C87.651 181.456 87.7727 181.436 87.7727 181.355C87.7727 181.172 86.6971 180.685 85.8651 180.482C85.4186 180.38 85.7636 180.34 86.9813 180.32C89.5789 180.279 92.2578 179.224 93.3537 177.783C94.1654 176.707 95.0787 174.759 95.0584 174.11C95.0584 173.541 95.0381 173.541 94.6728 174.414C93.4957 177.275 92.3795 178.432 90.0051 179.285C86.271 180.583 82.6586 179.812 76.5094 176.403C72.3288 174.069 69.6702 172.141 63.8052 167.189C61.7352 165.444 56.621 160.167 55.3628 158.483C54.6119 157.489 54.754 157.61 56.2354 159.193C60.4364 163.699 61.9584 165.18 63.5211 166.195C64.414 166.783 65.8752 167.778 66.7479 168.407C67.6408 169.036 68.9194 169.868 69.5891 170.254C70.2791 170.639 71.3344 171.37 71.9432 171.897C73.5667 173.298 76.9153 175.429 78.5185 176.078C80.3856 176.849 81.8265 176.829 84.0589 176.058C88.6251 174.475 90.3501 172.04 92.2375 164.49C92.481 163.536 93.0695 161.892 93.5566 160.837C94.5307 158.645 95.0787 156.372 95.0787 154.343V153.004L94.6728 153.612C94.4495 153.937 93.8407 155.54 93.3334 157.164C92.826 158.787 92.3592 160.249 92.2984 160.411C92.2375 160.573 92.1563 161.142 92.1157 161.669C91.9331 163.8 90.3501 169.361 89.4572 171.025C88.7266 172.385 86.8392 174.272 85.5607 174.901C84.3227 175.53 81.8468 176.24 80.8524 176.24C79.8783 176.24 79.1071 175.956 77.1994 174.901C74.825 173.582 72.41 171.958 70.9894 170.741C69.0005 168.995 66.9914 167.595 64.6779 166.337C62.8311 165.342 62.2223 164.855 60.2131 162.846C55.931 158.564 53.5972 155.642 49.8833 149.939C45.1751 142.714 40.5886 133.521 37.6459 125.403C33.242 113.328 33.2826 113.511 33.3029 108.559C33.3029 106.651 33.3638 104.866 33.445 104.541C33.5667 104.074 33.5262 103.993 33.1812 103.993C32.7956 103.993 32.7753 104.115 32.7753 107.341ZM50.6342 151.887C50.756 152.111 50.7966 152.293 50.756 152.293C50.6951 152.293 50.553 152.111 50.4313 151.887C50.3095 151.664 50.2689 151.481 50.3095 151.481C50.3704 151.481 50.5125 151.664 50.6342 151.887ZM94.4698 156.981C94.064 158.889 93.3537 160.614 92.9072 160.756C92.6231 160.857 92.7651 160.289 93.7798 157.062C94.7134 154.16 94.7337 154.12 94.8148 154.647C94.8554 154.871 94.7134 155.926 94.4698 156.981Z" fill="#FF0051"/>
<path id="Vector_30" d="M33.8915 105.109C33.7494 106.164 33.8509 108.681 34.0944 110.69C34.48 113.754 36.0021 119.579 37.0371 121.953C37.4836 122.948 38.3968 125.14 39.0868 126.824C40.9742 131.37 41.3801 132.324 42.3136 134.434C42.7804 135.49 43.2877 136.707 43.4501 137.113C43.9777 138.534 46.7174 144.074 47.306 144.906C48.9092 147.22 51.101 149.939 52.6434 151.563C53.5769 152.557 54.4902 153.612 54.6728 153.917C55.2613 154.871 57.6358 157.955 57.7169 157.874C57.8996 157.692 55.3019 153.795 53.8407 152.07C52.9681 151.015 52.1969 150 52.136 149.797C51.9534 149.229 53.0087 147.666 54.0031 147.017C54.5104 146.712 55.5455 146.286 56.3369 146.103C58.1634 145.657 59.5637 144.723 62.0396 142.308C63.9067 140.482 63.9879 140.34 64.7185 138.453C65.5708 136.24 65.9361 135.753 65.7332 137.113C65.5099 138.635 64.617 141.172 63.8052 142.653C61.309 147.24 59.2593 154.221 59.6855 156.697C59.8478 157.651 59.8478 157.61 59.9899 155.824C60.1725 153.47 61.0452 149.959 61.8976 148.133C62.2629 147.341 62.8108 146.124 63.1152 145.393C63.4196 144.663 63.9676 143.526 64.3329 142.856C65.2867 141.071 65.997 138.676 66.3623 136.058C66.4232 135.55 66.5247 134.921 66.5855 134.637C66.687 134.17 66.6261 134.191 65.9767 134.901C65.5302 135.388 64.962 136.484 64.4343 137.844C63.6023 139.934 63.5008 140.076 61.7149 141.821C59.584 143.912 57.8184 145.271 56.8646 145.556C56.5196 145.677 55.6875 145.921 55.0178 146.124C54.1451 146.388 53.5972 146.712 52.9478 147.362C52.481 147.849 52.1157 148.376 52.1766 148.519C52.2375 148.661 52.1157 148.904 51.9331 149.066C51.6084 149.33 51.5881 149.31 51.7301 148.945C51.8519 148.62 51.8316 148.579 51.6084 148.803C51.4054 149.006 51.4054 149.148 51.6084 149.513C51.8316 149.878 51.791 149.878 51.4054 149.432C51.1416 149.148 50.7357 148.661 50.4922 148.316C50.2689 147.991 49.5992 147.098 49.031 146.347C48.4628 145.596 47.651 144.46 47.2248 143.81C46.4333 142.674 44.5257 138.858 44.2415 137.884C44.1604 137.6 43.856 136.93 43.5921 136.383C43.3283 135.855 42.5165 133.988 41.8062 132.222C41.0959 130.477 39.9595 127.697 39.2897 126.032C38.5997 124.368 38.0518 122.927 38.0518 122.826C38.0518 122.745 38.478 122.867 39.0259 123.13C41.3192 124.287 42.9021 124.632 44.6068 124.368C45.7839 124.165 45.4998 123.962 43.998 123.922C42.3745 123.881 40.8524 123.475 39.168 122.643C37.3821 121.771 36.9153 120.918 35.7585 116.372C34.8656 112.943 34.7235 111.725 34.7032 107.808C34.7032 104.378 34.6627 103.993 34.3582 103.993C34.0944 103.993 33.9929 104.257 33.8915 105.109Z" fill="#FF0051"/>
<path id="Vector_31" d="M35.9614 105.961C35.1902 110.507 36.4079 115.52 39.0259 118.422C40.8118 120.411 44.3024 122.258 46.2506 122.258C47.1233 122.258 49.4165 121.608 51.243 120.817C52.968 120.086 56.8645 118.686 57.9604 118.402C59.5028 117.996 64.0487 115.885 66.6261 114.363C67.2146 114.018 67.7828 113.734 67.864 113.734C68.1684 113.734 71.5982 110.994 72.2882 110.223C73.5058 108.823 76.002 104.744 76.002 104.115C76.002 103.749 75.3526 104.074 75.1497 104.541C74.5205 105.982 72.4708 108.742 70.624 110.609C68.6758 112.598 68.554 112.679 67.4784 112.841C66.8696 112.943 66.2202 113.004 66.0578 112.983C65.8955 112.963 65.1649 112.902 64.4343 112.861C62.9731 112.76 62.0193 112.415 60.619 111.481C60.0913 111.136 59.8275 111.015 60.0101 111.238C60.2131 111.441 61.0857 112.009 61.9584 112.476C63.6428 113.369 65.4896 113.795 66.5246 113.511C67.2755 113.308 67.0319 113.653 66.0984 114.099C65.6925 114.302 64.2719 115.033 62.9528 115.723C59.9087 117.326 58.2445 117.813 56.6413 117.549C55.9919 117.448 55.2207 117.245 54.9163 117.103C53.2927 116.251 50.8371 112.334 50.8371 110.589C50.8371 109.452 51.8112 107.463 52.7448 106.773C53.7392 106.002 55.8295 105.048 56.966 104.845C57.656 104.703 58.5084 104.764 60.0101 105.028C62.6078 105.474 63.379 105.799 64.7184 106.996L65.7534 107.93L64.8402 106.956C63.8052 105.86 62.8919 105.332 61.3293 104.926C60.7407 104.764 59.8275 104.5 59.2998 104.318C58.2242 103.952 56.5195 103.871 56.5195 104.196C56.5195 104.297 56.3572 104.399 56.1339 104.399C55.4033 104.399 52.5621 106.022 51.3242 107.118C50.6342 107.727 49.518 109.046 48.8483 110.041C46.8189 113.004 44.6271 114.505 41.7453 114.931C40.8523 115.074 40.7509 115.114 41.2988 115.134C42.2324 115.155 44.1197 114.668 45.2156 114.12C46.3115 113.551 49.2339 110.629 49.8021 109.513C50.3704 108.376 50.6139 108.437 50.3704 109.635C50.0862 110.974 50.3095 111.847 51.3851 113.896C52.0548 115.175 52.3389 115.946 52.3998 116.819C52.4607 117.468 52.6027 117.935 52.6839 117.874C52.7854 117.813 52.8057 117.245 52.7448 116.616L52.623 115.459L53.4957 116.433C54.2466 117.245 54.6119 117.489 55.6469 117.773L56.9051 118.097L55.5454 118.463C54.7945 118.666 52.826 119.274 51.1415 119.782C48.3003 120.675 47.9553 120.736 45.865 120.736C43.795 120.736 43.5312 120.695 42.3135 120.107C40.9132 119.457 39.6753 118.361 38.7011 116.941C37.7879 115.601 36.8544 113.653 36.5297 112.374C36.1238 110.832 36.1238 106.712 36.5297 105.211C36.692 104.602 36.8341 104.074 36.8341 104.033C36.8341 104.013 36.7123 103.993 36.5703 103.993C36.3673 103.993 36.1847 104.622 35.9614 105.961Z" fill="#FF0051"/>
<path id="Vector_32" d="M44.0385 104.602C43.2065 104.947 42.8006 105.211 43.0847 105.211C43.3282 105.211 44.0994 104.987 44.7894 104.703C45.4794 104.419 46.1492 104.196 46.2709 104.196C46.413 104.196 45.8244 104.906 44.9721 105.799C43.5921 107.22 43.2471 107.463 41.5424 108.153C39.3912 109.026 39.1273 109.351 41.1973 108.559C43.3485 107.768 44.5256 107.017 45.1547 106.124C46.1694 104.642 46.3927 104.541 48.4221 104.439C50.4312 104.338 51.8315 104.622 52.3795 105.231C52.5621 105.454 52.8057 105.616 52.9071 105.616C53.2521 105.616 53.0492 105.211 52.4201 104.622L51.7504 103.993L48.6048 104.013C45.6012 104.013 45.3983 104.054 44.0385 104.602Z" fill="#FF0051"/>
<path id="Vector_33" d="M78.3562 104.926C77.9706 106.083 77.0574 107.382 74.7641 109.98C72.6738 112.374 71.4359 113.531 69.9138 114.505C68.8585 115.195 56.3978 121.466 54.9366 122.055C54.551 122.197 54.0437 122.501 53.8205 122.704C53.5769 122.927 52.4607 123.577 51.3446 124.165C49.2137 125.302 46.2101 127.007 46.0072 127.23C45.581 127.636 53.6378 123.455 54.3887 122.867C54.7337 122.603 66.4435 116.778 66.6464 116.778C66.7479 116.778 66.9306 117.042 67.032 117.387C67.1538 117.712 67.4785 118.3 67.7626 118.666C68.4526 119.559 68.2091 119.822 66.545 120.025C65.7738 120.107 64.9011 120.289 64.5967 120.391C63.8661 120.695 61.5323 122.948 60.274 124.551C58.5896 126.722 57.4125 127.27 53.9828 127.534C52.7246 127.615 51.2228 127.859 50.5328 128.102C49.8631 128.326 48.7469 128.671 48.0366 128.853C47.3466 129.056 46.8189 129.259 46.8595 129.3C46.9001 129.361 47.4278 129.239 48.0163 129.077C49.376 128.671 49.6195 128.671 49.6398 129.097C49.6398 129.401 49.6804 129.381 49.8225 129.036C50.1066 128.326 52.0346 127.737 54.1858 127.737C57.1284 127.737 58.5896 126.966 61.0046 124.125C62.9326 121.872 63.7038 121.182 64.7388 120.736C65.4694 120.411 67.2756 120.167 67.2756 120.391C67.2756 120.472 66.9914 120.857 66.6667 121.243C66.342 121.629 65.2664 123.496 64.2923 125.403C61.857 130.172 61.2076 130.822 57.027 132.628C53.2116 134.272 48.6657 136.687 47.7931 137.539C47.4481 137.884 47.0219 138.432 46.8392 138.757C46.5957 139.224 46.7783 139.122 47.6104 138.27C49.1528 136.707 53.1507 134.495 57.4328 132.811C58.6708 132.324 59.8276 131.796 60.0305 131.634C60.2132 131.471 60.4364 131.37 60.4973 131.451C60.5582 131.512 59.6043 132.608 58.3867 133.886C56.3572 135.997 54.8961 137.945 54.0031 139.65C53.4957 140.665 53.8002 140.441 54.4293 139.345C55.2208 137.965 56.134 136.809 58.0214 134.739C61.7352 130.7 63.4196 128.529 63.9473 127.108C64.3735 125.931 64.5764 125.687 65.4491 125.241L66.1594 124.896L65.4694 125.018L64.7794 125.139L65.5708 123.699C66.0173 122.846 66.9306 121.649 67.7829 120.797C69.3659 119.193 70.8879 117.062 70.6241 116.819C70.5429 116.738 70.2791 116.941 70.0356 117.265C69.1426 118.524 68.5541 119.072 68.3106 118.929C67.9656 118.706 67.032 116.799 67.1741 116.555C67.2553 116.454 67.7829 116.129 68.3512 115.845C70.5632 114.729 72.0853 113.511 74.3583 111.076C75.6165 109.696 76.8747 108.214 77.1589 107.788C77.4227 107.362 77.6865 107.037 77.7474 107.078C77.788 107.138 77.5648 107.971 77.2197 108.945C76.5906 110.812 73.9727 115.358 71.6591 118.605C70.5023 120.208 69.7515 121.284 68.8382 122.643C68.6556 122.927 68.2497 123.922 67.9453 124.835C67.4582 126.317 67.2553 126.641 66.0376 127.879C65.2867 128.63 64.2111 129.665 63.6429 130.152C63.0746 130.639 62.6485 131.086 62.7093 131.147C62.7499 131.207 63.2167 130.862 63.7241 130.396C65.1447 129.077 65.4288 129.28 64.3938 130.903C64.0488 131.451 63.5414 132.385 63.2573 132.993C62.8108 133.968 62.7702 134.231 62.892 135.652C63.0543 137.458 62.8514 138.493 62.1005 139.589C61.8367 139.995 61.6946 140.32 61.7961 140.32C62.1005 140.32 62.9529 138.858 63.1964 137.925C63.3588 137.357 63.3588 136.707 63.237 135.916C63.0341 134.637 63.3791 133.217 64.2517 131.654C64.4952 131.228 64.962 130.375 65.2867 129.767C65.855 128.732 67.0523 127.25 67.2147 127.412C67.2553 127.433 67.1132 128.326 66.89 129.381C66.6667 130.436 66.4841 131.613 66.4435 131.999C66.3826 132.831 66.6261 133.825 66.89 133.825C66.9914 133.825 67.6611 133.298 68.3512 132.648C69.0412 131.999 70.34 130.923 71.2126 130.274C72.1056 129.604 73.2015 128.772 73.648 128.427C75.0483 127.372 77.8286 124.307 80.1421 121.223C81.3801 119.619 83.0645 117.448 83.8966 116.413C84.7489 115.358 85.9057 113.795 86.4739 112.902C87.7728 110.913 87.9554 110.69 88.5034 110.487C88.7469 110.386 89.376 109.736 89.8834 109.026C90.3907 108.316 91.4257 106.936 92.1563 105.921C92.9275 104.866 93.374 104.074 93.2319 104.013C93.1102 103.973 92.9478 104.033 92.8666 104.135C91.101 106.692 88.7063 109.878 88.4628 109.959C88.2192 110.061 88.1584 110 88.2801 109.736C88.6048 108.924 88.9295 106.367 88.7875 105.758C88.6251 104.967 88.1787 104.236 87.8134 104.094C87.651 104.033 87.7728 104.277 88.0569 104.622C88.4831 105.109 88.5845 105.454 88.5845 106.306C88.5845 107.443 87.9554 109.736 87.4886 110.264C87.3466 110.446 87.1639 110.751 87.0828 110.974C86.8798 111.563 84.4445 115.155 84.2416 115.155C84.1604 115.155 84.1401 114.992 84.2213 114.789C84.3024 114.607 84.4242 113.491 84.4648 112.314C84.546 110.487 84.5054 110 84.1198 108.863C83.4298 106.814 82.0498 103.993 81.7251 103.993C81.5221 103.993 81.5627 104.176 81.8874 104.703C82.8819 106.306 83.7342 108.356 83.9574 109.675C84.201 111.136 83.9372 114.343 83.4501 115.662C83.2066 116.372 82.6789 117.225 82.5774 117.123C82.5368 117.083 82.6789 116.007 82.9021 114.729C83.3486 112.171 83.4095 110.548 83.1051 109.472C82.5977 107.666 80.6495 105.616 79.4115 105.616C78.8636 105.616 78.8433 105.596 78.9651 104.805C79.1477 103.688 78.7621 103.749 78.3562 104.926ZM80.9742 107.057C82.3745 108.356 82.7398 109.29 82.7195 111.644C82.7195 112.74 82.5571 114.444 82.3948 115.419C81.9889 117.752 81.5627 118.503 78.7621 121.892C77.8489 122.968 76.5703 124.51 75.9006 125.342C75.2309 126.154 74.5409 126.986 74.3786 127.169C73.9727 127.676 73.8712 127.636 73.5059 126.865C73.2624 126.357 73.2421 125.972 73.3841 125.018C73.7291 122.948 74.6018 121.852 75.9818 121.852C76.5297 121.852 76.6312 121.791 76.408 121.649C75.6165 121.142 74.48 121.629 73.7494 122.785C72.8362 124.287 72.6738 126.032 73.3232 127.27C73.5465 127.656 73.4856 127.757 72.8971 128.163C72.5521 128.407 71.9838 128.894 71.6388 129.219L71.0503 129.807L70.5632 128.508C69.8732 126.662 69.792 124.794 70.2994 122.501C70.6241 121.04 70.8879 120.37 71.4156 119.66C74.4191 115.642 77.1792 110.994 78.0721 108.478C78.8027 106.469 78.8433 106.388 78.7418 107.423C78.6809 108.011 78.478 108.924 78.3156 109.452C77.7271 111.177 75.86 114.871 74.7438 116.494C73.6885 117.996 72.4303 120.228 72.6332 120.228C72.6941 120.228 73.0797 119.66 73.4856 118.95C73.9118 118.26 74.6221 117.144 75.0889 116.474C77.0371 113.612 78.7012 109.919 78.9245 107.849C79.0056 107.138 79.1274 106.469 79.168 106.388C79.4115 106.002 80.1218 106.286 80.9742 107.057ZM69.305 123.557C69.0006 125.2 69.2847 127.676 69.9544 129.036L70.4009 129.99L68.8991 131.39C67.58 132.608 66.6667 133.135 66.6667 132.669C66.6667 132.608 66.9103 131.309 67.1944 129.787C67.7017 127.088 69.2441 121.913 69.447 122.136C69.5079 122.197 69.447 122.826 69.305 123.557Z" fill="#FF0051"/>
<path id="Vector_34" d="M94.4698 104.358C94.4698 104.967 92.9071 108.011 91.9533 109.249C91.4662 109.878 90.2486 111.299 89.2745 112.395C86.5347 115.439 85.7839 116.372 85.0938 117.59C84.7488 118.199 83.8356 119.579 83.0441 120.634C80.8523 123.577 79.6144 125.322 78.965 126.276C78.2344 127.352 75.9817 129.219 73.2623 131.025C70.0964 133.135 69.1831 134.15 68.412 136.443C68.1278 137.235 67.8437 138.31 67.7828 138.838C67.7017 139.386 67.4378 141.091 67.174 142.653C66.9102 144.216 66.6464 146.408 66.6058 147.524C66.4028 152.029 67.0725 153.815 69.934 156.514C74.7641 161.081 74.622 160.918 75.5352 163.252C76.6514 166.134 76.6311 166.093 76.5094 165.221C76.4485 164.815 76.1238 163.8 75.7991 162.988L75.1902 161.527L75.7585 162.136C76.0629 162.481 76.6514 163.151 77.0573 163.658C78.2953 165.139 80.142 167.067 79.6956 166.398C79.4723 166.053 78.6809 165.099 77.9503 164.267C76.6717 162.806 76.1644 161.974 77.0167 162.745C77.2603 162.968 78.072 163.191 79.1882 163.374C80.1623 163.516 81.1568 163.678 81.38 163.739C81.6032 163.82 81.4815 163.719 81.1162 163.557C80.7712 163.394 79.8782 163.171 79.1679 163.069C78.2344 162.927 77.5444 162.684 76.7732 162.177C75.2308 161.182 68.6149 154.627 68.1075 153.572C66.8899 151.136 66.7884 147.382 67.7625 142.248C69.0817 135.327 69.4876 134.495 72.6535 132.1C73.4652 131.492 74.2567 130.984 74.3785 130.984C74.6423 130.984 74.5002 131.532 74.0335 132.506C73.7494 133.075 73.7494 133.095 74.0741 132.77C74.277 132.587 74.5814 131.979 74.7641 131.431C75.0685 130.578 75.3526 130.213 76.6717 129.178C78.2141 127.92 79.0056 127.047 79.8376 125.708L80.2841 124.997L80.1623 125.809C80.1015 126.256 79.9797 128.082 79.8782 129.868C79.7362 132.445 79.5941 133.379 79.2085 134.414C78.7417 135.713 78.7417 135.733 77.727 135.956C76.205 136.322 75.3526 136.748 74.6829 137.499L74.0741 138.189L74.8249 137.499C75.312 137.052 76.002 136.707 76.9356 136.443C77.6864 136.24 78.3562 136.098 78.3967 136.159C78.4576 136.22 78.3562 136.971 78.1735 137.844C77.9706 138.838 77.8082 141.07 77.7067 143.973L77.5647 148.559L78.3562 150.467C79.0462 152.171 79.1476 152.577 79.1273 154.018C79.1273 154.911 79.0462 155.906 78.9853 156.251C78.8635 156.778 78.8635 156.819 79.0867 156.454C79.2085 156.23 79.3709 155.134 79.4317 154.018L79.5535 151.989L81.2785 154.201C82.2324 155.419 83.1659 156.596 83.3688 156.839C83.7138 157.245 83.7341 157.245 83.5312 156.859C83.4297 156.636 83.1456 156.251 82.9021 155.987C82.6585 155.743 81.9888 154.871 81.4206 154.059C80.8321 153.267 80.0406 152.253 79.6347 151.847C78.7012 150.893 77.8285 148.62 77.8285 147.159C77.8285 146.57 77.9706 145.008 78.1329 143.668C78.2953 142.329 78.4373 140.502 78.4373 139.609C78.4576 137.742 78.6403 137.884 79.1273 140.117C79.31 140.949 79.7767 142.187 80.142 142.856C81.0553 144.521 82.9021 147.524 82.9021 147.341C82.9021 147.017 81.9279 145.17 81.1568 144.013C79.3303 141.334 78.9447 139.163 79.6144 135.55C79.8376 134.313 80.1015 132.831 80.1623 132.222L80.3044 131.126L80.9741 132.385C81.3394 133.075 82.0903 134.15 82.6382 134.759C84.7286 137.174 84.9315 137.742 84.3227 139.386C83.8153 140.685 83.9371 140.827 84.5053 139.609C84.7488 139.102 84.9924 138.696 85.0938 138.696C85.3171 138.696 86.4536 140.441 87.1436 141.842C87.4886 142.511 87.9756 143.871 88.2598 144.886C89.5383 149.493 89.7818 150.325 89.7209 149.756C89.6804 149.411 89.2948 147.727 88.8483 146.002C88.0365 142.816 87.2653 141.01 85.865 138.919C85.4591 138.331 85.1344 137.763 85.1344 137.661C85.1344 137.174 85.8244 137.6 86.8594 138.737C87.4886 139.447 88.483 140.421 89.0512 140.928C89.6804 141.476 89.2339 140.908 87.935 139.508L85.7433 137.174L86.5144 137.052C87.3262 136.91 87.3262 136.93 85.6418 136.768C85.4186 136.748 85.1141 136.707 84.9924 136.687C84.8503 136.687 84.2618 136.017 83.6935 135.246C83.105 134.434 82.5774 133.886 82.4556 133.947C82.3135 134.028 82.2932 133.988 82.3744 133.866C82.4556 133.724 82.2932 133.318 82.0091 132.953C81.0959 131.776 80.4668 130.152 80.4668 128.995C80.4668 128.427 80.5073 127.94 80.5479 127.94C80.5885 127.94 81.2176 128.204 81.9279 128.549C82.6179 128.874 83.3485 129.158 83.5109 129.158C83.6732 129.137 83.1253 128.792 82.2932 128.387L80.7712 127.636L80.8118 126.195C80.8523 124.815 80.8929 124.673 81.9482 123.09L83.0441 121.446L83.4094 121.994C83.6124 122.319 85.0736 123.841 86.6362 125.403C88.3815 127.128 89.6804 128.61 89.9645 129.158L90.4109 130.071L89.8021 130.578C89.4571 130.862 89.1933 131.187 89.1933 131.329C89.1933 131.471 89.6804 131.816 90.2892 132.1C91.5677 132.709 92.278 133.562 93.0898 135.449C94.003 137.641 94.1857 139.386 93.9016 143.222C93.7595 145.028 93.658 147.199 93.658 148.031C93.658 151.644 92.2983 157.144 90.6342 160.37C90.2892 160.999 89.2745 163.171 88.3409 165.18C86.6565 168.833 85.3171 170.944 83.9777 172.06C82.3947 173.399 79.8579 173.907 77.9909 173.298C76.0629 172.669 73.2217 171.187 71.9837 170.172C70.0761 168.59 69.5484 167.778 69.0614 165.748C68.7164 164.247 67.9452 161.832 67.377 160.35C67.2958 160.167 67.3161 160.005 67.4175 160.005C67.6002 160.005 68.6961 162.298 68.6961 162.664C68.6961 163.069 70.2993 166.215 70.6646 166.54C71.0502 166.885 71.9432 166.722 71.9432 166.296C71.9432 166.175 71.862 166.114 71.7808 166.175C71.517 166.337 70.5023 164.652 68.7367 161.121C66.0578 155.743 65.449 154.14 65.2258 151.908C64.901 148.559 64.7387 147.565 64.4952 147.483C64.3531 147.423 64.2922 147.544 64.3734 147.788C64.414 147.991 64.0487 149.411 63.521 150.954C62.9934 152.476 62.6078 153.836 62.6687 153.978C62.7093 154.099 62.9325 153.673 63.176 153.004C64.069 150.507 64.414 149.553 64.4343 149.655C64.4546 149.716 64.5155 150.467 64.5763 151.339C64.6169 152.232 64.8402 153.531 65.0431 154.241C65.3881 155.54 65.3881 155.581 64.9416 157.489C64.6981 158.564 64.556 159.356 64.6372 159.254C64.8605 159.051 65.449 156.738 65.449 156.129C65.449 155.885 65.5099 155.723 65.5708 155.804C65.8549 156.088 68.0264 163.191 68.5946 165.687C69.2846 168.671 70.4617 170.091 73.9726 172.08C76.7935 173.683 78.0517 174.11 80.0609 174.11C81.38 174.11 81.7859 174.008 82.9427 173.44C85.378 172.242 87.4074 169.422 89.0106 164.977C89.3759 164.003 90.1674 162.217 90.7762 161.04C92.2374 158.179 92.5013 157.489 93.3536 154.181C94.003 151.644 94.1045 150.954 94.3277 146.712C94.6524 140.38 94.6119 138.534 94.0842 136.606C93.313 133.805 92.3186 132.263 90.7762 131.471C89.7412 130.944 89.6398 130.477 90.6139 130.619C91.1212 130.7 91.1618 130.66 91.0198 130.294C90.9183 130.051 90.7965 129.625 90.7357 129.34C90.5936 128.732 88.0162 125.85 87.7524 126.032C87.6509 126.093 87.5697 126.012 87.5697 125.85C87.5697 125.708 87.3465 125.383 87.0624 125.139C86.7783 124.896 86.555 124.734 86.555 124.774C86.555 124.815 86.1492 124.429 85.6418 123.942C85.1344 123.455 84.7286 122.988 84.7286 122.887C84.7286 122.785 84.6474 122.664 84.5662 122.623C84.343 122.542 83.5109 121.324 83.5109 121.081C83.5109 120.979 83.8153 120.492 84.2009 119.985C84.5865 119.477 85.1953 118.544 85.5403 117.874C86.21 116.636 87.0421 115.601 89.5992 112.719C92.2171 109.777 92.8666 108.904 94.003 106.875C95.0989 104.886 95.3425 103.993 94.7742 103.993C94.6119 103.993 94.4698 104.155 94.4698 104.358Z" fill="#FF0051"/>
<path id="Vector_35" d="M41.8671 105.15C42.0092 105.211 42.1918 105.19 42.2527 105.129C42.3339 105.068 42.2121 105.008 41.9889 105.028C41.7656 105.028 41.7048 105.089 41.8671 105.15Z" fill="#FF0051"/>
<path id="Vector_36" d="M41.2583 109.919C40.9945 110.183 40.9336 110.244 41.1568 110.081C41.3801 109.919 42.2121 109.736 43.1863 109.655L44.8504 109.533L43.2877 109.513C41.928 109.472 41.6642 109.533 41.2583 109.919Z" fill="#FF0051"/>
<path id="Vector_37" d="M94.3075 110.71C93.9422 111.136 92.7854 112.131 91.7707 112.902C90.7357 113.673 89.6601 114.526 89.376 114.789C89.0715 115.053 88.5033 115.52 88.0974 115.845C87.6915 116.149 87.3668 116.535 87.3668 116.677C87.3668 116.819 87.8539 117.57 88.4424 118.321C89.5383 119.741 91.4257 122.664 91.4257 122.968C91.4257 123.293 94.3481 128.63 94.4089 128.427C94.4901 128.184 94.206 126.865 93.9422 126.235C93.8001 125.89 93.861 125.85 94.4495 125.972C95.4034 126.175 95.1598 125.667 94.206 125.444C93.2927 125.221 92.6433 124.449 91.3445 121.953C90.8168 120.939 89.8427 119.396 89.1933 118.503C88.5236 117.61 88.0162 116.778 88.0365 116.677C88.1177 116.454 89.4977 115.297 92.5824 112.902C94.6322 111.319 95.1598 110.731 95.0381 110.183C94.9975 110 94.7336 110.183 94.3075 110.71Z" fill="#FF0051"/>
<path id="Vector_38" d="M58.9548 110.162C58.9548 110.203 59.1172 110.365 59.3201 110.507C59.6245 110.771 59.6448 110.751 59.381 110.426C59.1172 110.101 58.9548 110 58.9548 110.162Z" fill="#FF0051"/>
<path id="Vector_39" d="M94.3684 114.059C94.064 114.607 93.6581 115.256 93.4958 115.5C93.3334 115.764 93.2522 115.966 93.2928 115.966C93.5161 115.966 95.099 113.511 95.0381 113.288C94.9975 113.166 94.6931 113.511 94.3684 114.059Z" fill="#FF0051"/>
<path id="Vector_40" d="M85.9463 117.59C85.9463 117.752 86.1289 118.057 86.3522 118.3C87.5901 119.559 89.5993 122.826 90.2081 124.592C90.4516 125.261 90.9184 126.763 91.2431 127.94C91.8113 129.97 91.8316 130.01 91.7302 128.853C91.446 125.627 90.2487 122.582 88.2192 119.924C86.7986 118.057 85.9463 117.184 85.9463 117.59Z" fill="#FF0051"/>
<path id="Vector_41" d="M52.7651 122.603C52.5418 122.643 51.1821 123.11 49.7615 123.617C48.3206 124.125 46.6768 124.652 46.1085 124.794C45.1344 125.038 45.1141 125.058 45.7635 125.079C46.1491 125.079 47.245 124.815 48.1989 124.47C49.1527 124.145 50.695 123.597 51.6286 123.272C53.6174 122.562 54.0639 122.298 52.7651 122.603Z" fill="#FF0051"/>
<path id="Vector_42" d="M91.6489 130.497C91.6489 130.72 91.7098 130.781 91.7706 130.619C91.8315 130.477 91.8112 130.294 91.7503 130.233C91.6895 130.152 91.6286 130.274 91.6489 130.497Z" fill="#FF0051"/>
<path id="Vector_43" d="M94.3683 130.984C94.7133 131.329 94.9975 131.512 95.0381 131.39C95.0786 131.268 94.896 131.005 94.6322 130.781C93.9016 130.172 93.7189 130.315 94.3683 130.984Z" fill="#FF0051"/>
<path id="Vector_44" d="M93.861 131.492C93.861 131.613 94.003 131.897 94.1654 132.161C94.348 132.405 94.6118 132.953 94.7742 133.359C94.9163 133.785 95.0583 133.968 95.0583 133.765C95.0786 133.562 94.9569 133.115 94.7945 132.75C94.4698 131.999 93.8813 131.187 93.861 131.492Z" fill="#FF0051"/>
<path id="Vector_45" d="M60.761 133.156C60.0304 134.028 59.9493 134.272 60.5784 133.683C60.964 133.318 61.2278 132.973 61.1669 132.912C61.106 132.851 60.9234 132.973 60.761 133.156Z" fill="#FF0051"/>
<path id="Vector_46" d="M59.3608 135.246C59.1376 135.693 58.9955 136.058 59.0564 136.058C59.097 136.058 59.3405 135.693 59.5637 135.246C59.787 134.8 59.929 134.434 59.8681 134.434C59.8276 134.434 59.584 134.8 59.3608 135.246Z" fill="#FF0051"/>
<path id="Vector_47" d="M76.6515 141.781C76.205 142.714 75.0483 144.642 74.0944 146.063C73.1203 147.504 72.3491 148.762 72.3491 148.884C72.3491 149.087 74.4597 146.043 76.0833 143.486C76.8544 142.288 77.7271 140.34 77.5647 140.198C77.5242 140.157 77.1183 140.868 76.6515 141.781Z" fill="#FF0051"/>
<path id="Vector_48" d="M62.2629 143.506C62.0396 143.81 61.5729 144.581 61.2482 145.19C60.9032 145.799 59.9899 147.362 59.1781 148.64C57.6561 151.096 57.4937 151.644 57.9605 153.105C58.0822 153.491 58.3055 154.323 58.4475 154.931C58.6505 155.784 58.7114 155.906 58.7317 155.439C58.752 155.094 58.5693 154.16 58.3461 153.328C58.1025 152.516 57.9808 151.684 58.0417 151.481C58.204 150.994 59.7058 148.356 60.5379 147.159C61.4714 145.779 62.8717 143.161 62.7499 143.039C62.689 142.978 62.4658 143.181 62.2629 143.506Z" fill="#FF0051"/>
<path id="Vector_49" d="M90.6343 163.11C90.3502 163.82 90.3502 164.064 90.614 164.064C90.8575 164.064 91.101 163.171 90.959 162.806C90.8981 162.643 90.7763 162.785 90.6343 163.11Z" fill="#FF0051"/>
<path id="Vector_50" d="M71.9432 163.922C71.9432 164.226 72.5115 165.18 72.9985 165.627C73.445 166.032 73.79 166.175 74.338 166.114C74.8453 166.073 74.5612 165.687 74.0133 165.687C73.445 165.687 72.6535 165.038 72.1868 164.165C72.065 163.942 71.9432 163.841 71.9432 163.922Z" fill="#FF0051"/>
<path id="Vector_51" d="M76.6312 166.418C76.6312 166.641 76.6921 166.702 76.7529 166.54C76.8138 166.398 76.7935 166.215 76.7326 166.154C76.6718 166.073 76.6109 166.195 76.6312 166.418Z" fill="#FF0051"/>
<path id="Vector_52" d="M88.9904 166.621C88.7469 167.25 88.483 168.874 88.6454 168.732C88.7875 168.61 89.376 166.093 89.2542 166.093C89.2136 166.093 89.0919 166.337 88.9904 166.621Z" fill="#FF0051"/>
<path id="Vector_53" d="M89.8427 166.966C89.8225 167.352 89.721 167.92 89.5992 168.245C89.4166 168.691 89.4369 168.772 89.5992 168.61C89.9239 168.285 90.2689 166.682 90.0457 166.459C89.9442 166.357 89.863 166.58 89.8427 166.966Z" fill="#FF0051"/>
<path id="Vector_54" d="M76.8342 167.23C76.8342 167.453 76.8951 167.514 76.9559 167.352C77.0168 167.21 76.9965 167.027 76.9357 166.966C76.8748 166.885 76.8139 167.007 76.8342 167.23Z" fill="#FF0051"/>
<path id="Vector_55" d="M94.409 179.102C93.6581 180.178 92.8463 180.644 91.1822 180.908C90.4313 181.05 89.7616 181.233 89.7007 181.314C89.6398 181.416 89.8834 181.659 90.2487 181.842C91.3852 182.451 95.6672 182.43 95.0584 181.842C94.9975 181.781 94.5916 181.821 94.1655 181.943C93.2319 182.207 91.4054 182.045 90.6343 181.618L90.1066 181.334L90.9184 181.314C92.2578 181.314 93.1711 180.949 94.1655 180.035C94.8352 179.427 95.099 179.061 95.0584 178.757C94.9772 178.371 94.9164 178.412 94.409 179.102Z" fill="#FF0051"/>
</g>
<g id="bottom-right">
<rect id="Rectangle 14" x="94.9772" y="104.414" width="43.9574" height="79.9543" fill="#F56762"/>
<path id="Vector_56" d="M96.5703 105.54C96.1441 107.326 95.515 108.909 95.1091 109.254C94.9467 109.376 94.825 109.762 94.825 110.107V110.736L95.515 109.762C95.9005 109.214 96.3673 108.219 96.5703 107.529L96.9356 106.291L97.1182 107.428C97.2806 108.402 97.24 108.645 96.9356 108.99C96.3673 109.66 94.8452 112.542 94.825 112.968C94.825 113.557 95.2105 113.11 95.515 112.177L95.7788 111.405L96.3064 112.298C96.5906 112.785 97.0167 113.76 97.2806 114.47C97.7067 115.667 97.7067 115.87 97.5038 117.615C97.3617 118.65 97.0776 119.99 96.8341 120.599C96.2455 122.101 95.8397 123.663 96.0629 123.521C96.1644 123.46 96.2455 123.257 96.2455 123.075C96.2455 122.872 96.4688 122.303 96.7529 121.776C97.3617 120.639 97.8691 118.772 97.8691 117.717C97.8691 117.291 97.9503 116.946 98.0517 116.946C98.3156 116.946 98.4982 117.798 98.6809 119.686L98.8229 121.309L98.8635 119.746C98.8635 118.894 98.7823 117.94 98.6606 117.615C98.5388 117.311 98.2547 116.418 98.0517 115.647C97.8285 114.896 97.3009 113.557 96.8747 112.684L96.1035 111.121L96.6717 110.025C97.0167 109.335 97.2603 109.031 97.3211 109.234C99.107 114.51 99.3709 115.261 100.507 117.656C103.572 124.191 103.836 125.043 103.815 128.392C103.775 132.511 103.328 133.871 100.71 138.052C98.3156 141.867 97.9706 142.801 97.6864 146.23C97.3617 150.269 97.1588 155.667 97.2603 157.737C97.3211 158.793 97.3617 161.938 97.3617 164.739C97.3617 170.076 97.24 171.172 96.205 174.683C95.9005 175.759 95.7991 176.611 95.8194 178.295C95.86 180.406 95.8194 180.548 95.312 181.218C95.0279 181.603 94.825 181.948 94.8655 182.009C95.0076 182.151 96.0223 181.076 96.1441 180.649C96.2455 180.325 96.4688 180.264 97.3617 180.264C98.5794 180.264 99.8985 179.878 102.821 178.661C108.097 176.449 110.654 174.845 113.496 171.964C115.485 169.954 119.178 165.571 119.178 165.226C119.178 164.921 118.874 165.023 118.63 165.429C117.981 166.443 115.485 169.406 113.719 171.192C111.487 173.465 109.153 175.251 106.859 176.408C104.952 177.362 100.649 179.168 99.797 179.351C99.4723 179.432 99.0462 179.533 98.8838 179.594C98.7215 179.655 98.0923 179.757 97.5038 179.797L96.4282 179.899L96.5094 177.687C96.55 176.489 96.7326 174.906 96.9356 174.176C97.6256 171.598 97.6864 170.726 97.8691 162.303C97.9706 157.615 98.1329 151.547 98.2547 148.808C98.4779 142.618 98.5185 142.456 101.603 137.524C103.085 135.109 103.856 132.999 104.181 130.32C104.627 126.586 104.16 124.516 101.705 119.381C98.9447 113.658 97.9909 110.675 97.6256 106.778C97.4835 105.094 97.3009 103.957 97.1791 103.957C97.0573 103.957 96.7935 104.668 96.5703 105.54ZM98.0112 150.472C97.9706 150.837 97.93 150.553 97.93 149.822C97.93 149.092 97.9706 148.808 98.0112 149.153C98.0517 149.518 98.0517 150.127 98.0112 150.472Z" fill="#FF0051"/>
<path id="Vector_57" d="M98.275 104.181C98.275 104.607 99.107 107.651 99.6144 109.072C100.345 111.06 101.299 112.948 103.714 117.088C106.311 121.512 107.001 123.359 107.144 126.281C107.265 128.615 107.001 131.192 106.372 133.628C106.169 134.48 105.987 135.819 105.987 136.631V138.072L105.297 138.356C104.201 138.823 102.232 141.157 101.279 143.125C99.7767 146.251 98.7214 149.985 98.9447 151.365C99.1679 152.765 100 154.145 100.893 154.653C101.948 155.241 101.948 155.038 100.934 154.145C99.2288 152.704 99.0664 150.391 100.386 146.575C101.542 143.227 102.232 142.009 104.018 140.203C104.891 139.33 105.642 138.661 105.682 138.701C105.743 138.742 105.906 139.432 106.068 140.203C106.23 140.974 106.474 142.05 106.596 142.577C106.819 143.531 106.819 143.552 106.251 143.998C104.972 144.992 103.369 147.184 103.064 148.402C102.983 148.686 103.206 148.402 103.531 147.752C104.181 146.535 106.271 144.14 106.677 144.14C106.819 144.14 107.042 144.668 107.204 145.297C107.346 145.946 107.712 147.002 108.036 147.631C109.559 150.655 109.883 154.632 108.909 158.448C108.321 160.802 107.691 162.263 106.677 163.683C105.743 164.982 106.088 164.759 107.184 163.359C108.442 161.715 109.457 158.853 109.822 155.85C109.964 154.653 109.985 154.612 110.208 155.16C110.472 155.809 111.872 157.92 111.872 157.676C111.872 157.575 111.649 157.128 111.365 156.641C111.101 156.175 110.736 155.403 110.573 154.937C110.289 154.125 110.289 154.064 110.614 153.963C112.339 153.415 113.516 152.44 113.475 151.588C113.475 151.304 113.435 151.243 113.354 151.446C112.988 152.603 112.197 153.293 110.959 153.557L110.33 153.699L109.985 151.852C109.802 150.837 109.234 148.93 108.747 147.61C108.26 146.291 107.671 144.404 107.468 143.409L107.083 141.603L108.097 142.577C108.828 143.288 109.843 143.917 111.811 144.891C115.2 146.515 116.215 147.428 117.007 149.518C117.818 151.71 118.021 152.623 118.042 154.389C118.062 156.012 118.042 156.033 116.905 158.001C115.444 160.578 114.612 162.912 114.104 165.956L113.699 168.392L112.643 169.366C112.055 169.894 111.202 170.584 110.756 170.908C109.68 171.659 106.291 173.344 104.323 174.074C103.47 174.399 102.821 174.744 102.861 174.825C102.922 174.906 102.841 174.947 102.699 174.886C102.557 174.825 101.887 175.15 101.218 175.616C100.162 176.327 99.8985 176.428 99.2085 176.347C98.762 176.286 98.1532 176.043 97.8285 175.799C97.0979 175.251 96.9152 175.373 97.4429 176.043C97.6864 176.327 98.2547 176.672 98.7823 176.814C99.7158 177.078 99.7361 177.078 101.522 176.144C102.516 175.616 103.896 174.987 104.607 174.724C109.741 172.775 115.829 168.087 118.65 163.907C119.016 163.359 119.482 162.77 119.665 162.628C120.01 162.324 120.091 161.999 119.807 161.999C119.604 161.999 117.007 164.901 115.038 167.336C114.612 167.884 114.226 168.27 114.165 168.209C113.942 168.006 114.612 164.8 115.241 163.034C115.992 160.903 118.752 155.708 119.117 155.708C119.239 155.708 119.564 155.992 119.807 156.357C120.416 157.21 120.558 159.097 120.112 160.375C119.807 161.268 119.807 161.289 120.193 160.822C120.578 160.355 121.005 158.752 121.005 157.717C121.005 156.885 120.538 156.134 119.604 155.444C118.833 154.855 118.833 154.855 118.732 153.11C118.61 151.121 118.062 149.538 116.885 147.752C115.972 146.413 114.774 145.5 111.852 143.998C109.254 142.659 107.834 141.441 107.164 139.98C106.778 139.127 106.697 138.64 106.717 136.834C106.717 135.596 106.88 133.973 107.083 132.978C107.286 132.024 107.549 130.239 107.691 129.021L107.935 126.788L108.706 128.351C109.132 129.224 109.579 129.934 109.701 129.934C109.822 129.934 109.843 129.995 109.782 130.076C109.701 130.137 109.762 130.401 109.904 130.624C110.249 131.131 111.243 133.912 111.872 136.002C112.278 137.423 112.42 137.626 113.983 139.148C114.896 140.061 115.992 141.177 116.418 141.664C116.824 142.151 117.25 142.517 117.352 142.476C117.555 142.415 115.18 139.696 113.557 138.153C112.785 137.423 112.481 136.997 112.481 136.611C112.481 134.967 110.857 130.279 109.843 128.98C109.619 128.696 109.457 128.432 109.498 128.392C109.538 128.351 109.985 128.554 110.533 128.818C111.892 129.508 112.948 129.609 114.571 129.244C116.195 128.859 116.743 128.838 116.743 129.143C116.743 129.549 117.534 130.502 118.63 131.375L119.685 132.248L118.529 131.091C117.189 129.751 117.007 129.122 117.981 129.122C118.833 129.122 122.06 130.218 123.541 131.01C124.718 131.639 124.8 131.72 125.733 133.648C126.281 134.744 126.768 135.596 126.809 135.556C126.91 135.454 125.327 131.781 125.023 131.416C124.678 130.989 125.023 130.218 126.119 129.001C126.768 128.311 126.971 127.966 126.667 128.168C126.119 128.534 125.084 129.731 124.678 130.482C124.373 131.071 124.272 131.05 122.973 130.462C121.329 129.711 119.543 129.102 118.245 128.859L117.067 128.615L116.844 127.499C116.499 125.794 115.687 124.252 114.592 123.196C113.475 122.121 112.582 121.411 112.379 121.411C112.298 121.411 112.684 121.756 113.232 122.202C115.2 123.744 116.337 125.611 116.662 127.803L116.783 128.635L114.632 128.899C112.055 129.244 111.04 129.041 109.944 127.966C108.625 126.687 107.854 125.206 107.326 122.953C107.042 121.816 106.596 120.335 106.291 119.685L105.764 118.488L106.332 118.021L106.9 117.534L106.19 117.879L105.5 118.224L104.647 117.27C102.598 115.038 99.5941 108.666 99.0664 105.5C98.9041 104.505 98.7214 103.957 98.5388 103.957C98.3967 103.957 98.275 104.059 98.275 104.181ZM105.175 118.366C105.337 118.488 105.987 119.888 105.987 120.112C105.987 120.315 105.561 119.726 105.013 118.732C104.789 118.326 104.647 117.94 104.729 117.859C104.81 117.798 104.891 117.859 104.952 118.001C104.992 118.143 105.094 118.305 105.175 118.366Z" fill="#FF0051"/>
<path id="Vector_58" d="M120.923 104.201C121.005 104.323 121.248 104.932 121.451 105.561C121.816 106.657 121.816 106.657 121.715 105.845C121.593 104.871 121.228 103.957 120.964 103.957C120.862 103.957 120.842 104.059 120.923 104.201Z" fill="#FF0051"/>
<path id="Vector_59" d="M133.932 105.317C134.236 112.014 134.338 116.865 134.196 117.311C134.094 117.615 133.973 118.813 133.912 119.99C133.729 123.359 132.593 130.644 131.761 133.891C131.192 136.043 130.218 139.067 129.589 140.649C129 142.172 129.122 142.618 129.751 141.177C131.842 136.347 133.831 127.012 134.419 119.381C134.663 116.114 134.581 104.972 134.297 104.302C134.013 103.612 133.871 103.978 133.932 105.317Z" fill="#FF0051"/>
<path id="Vector_60" d="M135.677 104.242C135.901 104.83 136.266 115.688 136.164 118.163C135.779 125.997 132.755 137.341 129.122 144.647C128.128 146.657 126.89 148.93 126.383 149.721C125.226 151.507 121.553 158.874 121.654 159.198C121.715 159.34 122.324 158.346 123.034 157.027C123.744 155.688 125.063 153.273 125.997 151.649C127.823 148.422 130.117 143.897 130.766 142.253C133.607 135.129 136.327 124.272 136.611 118.975L136.733 116.438L137.443 117.758C138.072 118.955 138.153 119.239 138.153 120.7C138.153 121.634 137.971 123.136 137.707 124.252C137.463 125.307 137.138 126.91 136.956 127.823C136.124 131.984 132.572 142.618 130.401 147.387C128.574 151.365 124.434 158.853 121.979 162.567C119.158 166.849 112.522 174.5 109.477 176.997C105.824 180 99.9797 182.659 96.3064 183.004C95.0279 183.125 94.825 183.207 94.825 183.531C94.825 184.039 95.6164 184.039 97.7676 183.531C100.974 182.76 104.708 181.137 107.306 179.391C109.396 177.991 112.075 175.535 114.855 172.491C118.021 169.041 120.132 166.301 122.445 162.689C123.359 161.248 124.414 159.604 124.759 159.056C126.87 155.769 130.137 149.498 131.862 145.459C134.541 139.168 137.443 129.366 138.458 123.136C138.823 120.883 138.864 120.315 138.661 119.28C138.397 117.9 137.91 116.885 137.179 116.093C136.692 115.566 136.692 115.525 136.57 110.411C136.428 104.789 136.327 103.957 135.88 103.957C135.698 103.957 135.616 104.079 135.677 104.242Z" fill="#FF0051"/>
<path id="Vector_61" d="M109.761 110.269C111.202 110.391 112.156 110.614 113.8 111.162C114.023 111.223 113.962 111.142 113.658 110.979C112.826 110.492 110.695 110.046 109.335 110.086C108.138 110.107 108.158 110.107 109.761 110.269Z" fill="#FF0051"/>
<path id="Vector_62" d="M107.164 110.391C107.286 110.431 107.529 110.431 107.671 110.391C107.793 110.33 107.691 110.289 107.407 110.289C107.123 110.289 107.022 110.33 107.164 110.391Z" fill="#FF0051"/>
<path id="Vector_63" d="M120.517 113.699C121.755 113.78 123.48 114.003 124.333 114.186C125.205 114.368 126.119 114.51 126.362 114.49C127.62 114.45 122.77 113.678 120.7 113.618L118.265 113.516L120.517 113.699Z" fill="#FF0051"/>
<path id="Vector_64" d="M110.107 120.741C110.289 120.781 110.573 120.781 110.715 120.741C110.837 120.68 110.695 120.639 110.35 120.639C110.025 120.639 109.904 120.68 110.107 120.741Z" fill="#FF0051"/>
<path id="Vector_65" d="M122.019 123.318C121.634 123.582 121.005 124.231 120.619 124.779L119.949 125.774L120.781 124.82C121.248 124.292 121.918 123.623 122.283 123.338C123.095 122.709 122.953 122.689 122.019 123.318Z" fill="#FF0051"/>
<path id="Vector_66" d="M94.825 125.855C94.825 125.977 95.4744 126.403 96.2658 126.809C98.417 127.945 99.9188 130.015 100.568 132.755C100.69 133.323 100.873 133.79 100.934 133.79C101.157 133.79 100.731 132.166 100.081 130.624C99.5535 129.346 98.4373 127.783 97.4632 126.931C97.1791 126.687 95.1294 125.672 94.9264 125.672C94.8655 125.672 94.825 125.753 94.825 125.855Z" fill="#FF0051"/>
<path id="Vector_67" d="M94.825 131.476C94.825 131.537 94.9873 131.903 95.2105 132.329C95.9208 133.77 96.4079 138.782 95.8803 139.31C95.7382 139.452 95.6367 139.98 95.6367 140.487C95.6367 140.994 95.4947 142.557 95.312 143.937C94.8655 147.225 94.8452 156.601 95.2511 159.97C95.6164 162.953 95.6164 168.473 95.2511 170.827C95.1091 171.821 94.9467 173.059 94.9061 173.567L94.8452 174.48L95.1294 173.567C96.1644 170.441 96.4282 166.89 96.5906 153.678C96.8341 135.84 96.7732 134.094 95.7788 132.329C95.4338 131.679 94.825 131.152 94.825 131.476ZM96.205 141.644C95.86 144.952 95.7788 148.767 96.0223 150.411C96.205 151.608 96.2253 153.394 96.1238 156.682C95.9005 162.872 95.6773 161.411 95.515 152.968C95.4135 147.773 95.4541 145.865 95.7179 143.45C95.9005 141.786 96.0426 140.284 96.0426 140.102C96.0426 139.878 96.1035 139.858 96.205 140.02C96.2861 140.162 96.2861 140.893 96.205 141.644Z" fill="#FF0051"/>
<path id="Vector_68" d="M94.8453 134.236C94.825 134.561 94.9264 134.805 95.0279 134.805C95.2714 134.805 95.2714 134.642 95.0279 134.094C94.8656 133.729 94.8453 133.749 94.8453 134.236Z" fill="#FF0051"/>
<path id="Vector_69" d="M117.798 143.105C117.839 143.389 117.981 143.633 118.123 143.694C118.468 143.795 118.427 143.491 118.062 143.004C117.758 142.638 117.758 142.638 117.798 143.105Z" fill="#FF0051"/>
<path id="Vector_70" d="M118.772 143.125C118.61 143.227 118.569 143.328 118.671 143.328C118.792 143.328 119.016 143.227 119.178 143.125C119.34 143.024 119.401 142.922 119.28 142.922C119.178 142.922 118.935 143.024 118.772 143.125Z" fill="#FF0051"/>
<path id="Vector_71" d="M120.7 145.358C120.903 145.581 121.106 145.764 121.167 145.764C121.228 145.764 121.106 145.581 120.903 145.358C120.7 145.134 120.497 144.952 120.436 144.952C120.375 144.952 120.497 145.134 120.7 145.358Z" fill="#FF0051"/>
<path id="Vector_72" d="M102.943 161.654C103.267 162.222 103.714 163.399 103.957 164.231C104.201 165.063 104.485 165.835 104.587 165.936C104.668 166.038 104.526 165.368 104.242 164.414C103.694 162.689 102.902 160.903 102.557 160.7C102.456 160.639 102.638 161.065 102.943 161.654Z" fill="#FF0051"/>
<path id="Vector_73" d="M109.234 161.979C109.234 162.101 109.315 162.243 109.437 162.303C109.559 162.364 109.579 162.283 109.518 162.121C109.376 161.756 109.234 161.695 109.234 161.979Z" fill="#FF0051"/>
<path id="Vector_74" d="M100.345 164.231C100.325 164.516 100.446 165.429 100.609 166.261L100.893 167.783L100.771 166.443C100.649 164.901 100.345 163.379 100.345 164.231Z" fill="#FF0051"/>
<path id="Vector_75" d="M105.216 166.788C105.459 167.133 105.784 167.6 105.926 167.803C106.048 168.026 106.169 168.087 106.169 167.966C106.19 167.844 105.865 167.397 105.459 166.951C104.972 166.423 104.891 166.383 105.216 166.788Z" fill="#FF0051"/>
<path id="Vector_76" d="M95.1699 177.362C94.967 177.727 94.8249 178.214 94.8452 178.478C94.8452 178.823 94.9467 178.722 95.2511 178.052C95.7178 176.996 95.657 176.428 95.1699 177.362Z" fill="#FF0051"/>
</g>
<g id="top-left">
<rect id="Rectangle 12" x="24.8097" y="13.3942" width="69.4475" height="90.548" fill="#F56762"/>
<path id="Vector_77" d="M94.7335 14.6126C94.6726 15.0388 94.5102 16.297 94.3885 17.4132C94.2464 18.5294 94.1247 19.4629 94.0841 19.5035C94.0638 19.5441 93.7594 19.4224 93.4144 19.26C93.0491 19.0571 92.2779 18.9353 91.4661 18.9353C90.2079 18.9353 90.0455 18.8744 89.2743 18.225C87.7928 16.9465 86.2099 16.6015 81.9278 16.6015C78.0719 16.6015 76.2657 16.9059 73.5666 17.9612C72.4707 18.3873 72.0851 18.9353 72.0851 20.0921C72.0851 20.6603 72.836 22.3853 73.8304 24.0697C74.216 24.7192 74.703 25.8151 74.9466 26.4848C75.5757 28.3518 76.3875 30.3204 76.4889 30.2189C76.5295 30.1783 76.2657 29.1433 75.8598 27.9257C75.4742 26.7283 75.0886 25.5106 75.0075 25.2265C74.9466 24.9424 74.3377 23.745 73.6883 22.568C72.3692 20.2138 72.146 19.4426 73.0998 20.6806C73.4448 21.1271 73.8304 21.6141 73.9724 21.7765C74.5001 22.4259 75.0277 23.3391 75.2916 24.0089C76.3875 26.7486 77.1992 29.5695 77.3819 31.0916C77.5036 32.0454 77.666 32.9789 77.7675 33.1616C77.8486 33.3442 77.9298 34.2372 77.9501 35.1504C77.9501 36.084 78.011 36.916 78.0922 37.0175C78.2139 37.2407 76.9151 38.5801 76.0222 39.1484C75.0277 39.7775 73.2824 41.2996 71.9836 42.6593C71.3139 43.3696 70.4412 44.2828 70.0556 44.6887C68.7771 46.0484 67.5392 47.4284 66.7883 48.362C64.5965 51.0611 64.1297 51.67 63.2774 52.9485C62.2424 54.5314 60.8015 58.4685 60.1318 61.5939C59.5432 64.3336 59.462 68.5548 60.0303 68.0068C60.0912 67.9257 60.2738 66.4645 60.4362 64.7192C60.7609 61.1068 60.9029 60.3965 61.6335 58.4076C61.9379 57.6162 62.3844 56.3985 62.6279 55.6679C63.1353 54.2473 63.9471 52.5629 64.4544 51.9135C64.9415 51.2641 64.84 51.6902 63.8862 54.0038C62.7294 56.8653 62.1003 58.8338 62.1815 59.26C62.2221 59.463 62.4859 58.9759 62.7294 58.2047C63.4803 55.9723 65.4083 52.0758 66.7071 50.1885C67.8842 48.4432 69.1018 46.9617 70.9892 44.912C71.5777 44.3031 72.4301 43.2884 72.9171 42.6796C74.1551 41.1575 75.8395 39.5137 77.0572 38.7222C80.0201 36.774 80.5072 36.5507 82.7396 35.9622C83.9978 35.6375 86.3317 35.1504 87.9349 34.8663C89.5381 34.6025 91.3646 34.2981 91.9735 34.1763C92.5823 34.0748 93.5158 33.9328 94.0638 33.8516C94.8552 33.7501 95.0176 33.6486 95.0176 33.3036C95.0176 32.918 94.9364 32.8978 93.8811 32.9992C92.8055 33.1007 92.7649 33.1007 92.8258 32.6745C92.8664 32.3092 93.0491 32.2077 93.8811 32.1266L94.8755 32.0251L94.9364 30.5436C94.9973 29.5898 94.9364 29.1027 94.8147 29.1839C94.7132 29.2448 94.6117 29.8536 94.6117 30.5233V31.7207H93.7188H92.8258L92.9882 30.9901C93.1911 30.158 93.3332 29.9754 93.9014 29.8333C94.2667 29.7521 94.2667 29.7318 93.8608 29.7116C93.4346 29.6913 93.4144 29.6304 93.5158 28.3315C93.6376 26.7892 93.6985 26.6471 94.1652 26.6471C94.3479 26.6471 94.6523 26.5456 94.8147 26.4239C95.0379 26.2615 94.9161 26.2412 94.3479 26.3427C93.6579 26.4442 93.5767 26.4239 93.6782 26.0992C94.0638 24.8612 94.4494 22.3447 94.6117 19.9703C94.7132 18.4482 94.8755 16.4594 94.9364 15.5259C95.0785 13.8414 94.9364 13.2326 94.7335 14.6126ZM85.8852 17.535C87.4275 17.8394 89.5381 18.7121 89.5381 19.0368C89.5381 19.1991 89.3555 19.6253 89.1323 20.0109C88.4828 21.0865 87.9146 24.4147 87.7523 28.0474C87.5899 31.2742 87.6711 33.263 87.9552 32.8369C88.0161 32.7151 88.1378 31.2133 88.219 29.4883C88.4017 25.7542 89.0105 20.8024 89.3352 20.4777C89.5179 20.3153 89.5584 20.4574 89.457 21.0662C89.3149 21.9388 89.0511 29.0418 89.0511 31.5583C89.0511 32.9789 89.1728 33.5675 89.4164 33.3239C89.457 33.2833 89.5787 30.1986 89.6802 26.5051C89.8629 19.6659 89.9643 18.8744 90.5934 19.5035C90.7355 19.6456 91.2632 19.7471 91.8111 19.7471C92.9273 19.7471 93.7391 20.0718 93.9014 20.5791C94.0232 20.9647 93.5361 24.1306 93.1099 25.7339C92.9476 26.2818 92.7243 27.9662 92.5823 29.468C92.3185 32.5528 92.1967 33.3442 91.9532 33.3442C91.7908 33.3442 91.8111 32.9586 92.1967 29.9348C92.5011 27.4589 92.4199 26.4239 91.7705 24.4553C91.4458 23.4406 91.1617 22.3244 91.1617 21.9794C91.1617 21.4112 91.2023 21.3706 91.9329 21.3706C92.9273 21.3706 93.5361 21.188 93.6579 20.8835C93.7391 20.6806 93.5361 20.6603 92.7243 20.8024C92.1561 20.9038 91.4458 20.9647 91.1414 20.9241C90.7152 20.8632 90.5529 20.9241 90.4717 21.2488C90.2687 21.9997 90.3499 24.2727 90.634 26.2412C90.7964 27.2965 90.9993 28.981 91.0602 29.9957C91.1414 30.9901 91.2226 32.1672 91.2632 32.573C91.324 33.3036 91.3037 33.3442 90.5326 33.5472C90.0861 33.6689 89.6396 33.7095 89.5179 33.6486C89.4164 33.5675 89.2134 33.6081 89.0714 33.7095C88.9293 33.811 88.3814 33.9733 87.8334 34.0545C85.6416 34.3589 80.6493 35.881 79.4722 36.6116C78.4372 37.2407 78.3763 37.1595 78.3763 35.1098C78.3763 34.0951 78.2748 32.4107 78.1531 31.4163C77.7472 28.088 75.9207 23.4203 74.3174 21.6141C73.7898 21.0256 73.181 20.2341 72.978 19.8485C72.633 19.1991 72.633 19.1382 72.9577 18.7729C73.526 18.1438 75.9613 17.5959 79.6954 17.2306C80.9334 17.1088 84.6269 17.2915 85.8852 17.535Z" fill="#FF0051"/>
<path id="Vector_78" d="M64.1296 18.3468C62.2017 18.8947 60.8014 19.7877 60.5172 20.6806C60.2737 21.3909 60.3143 21.4518 61.8973 23.7856C64.9008 28.2301 66.1793 33.0398 65.8546 38.7628L65.7329 40.5893L64.292 41.0155C61.5928 41.8272 56.5599 45.1352 54.571 47.4487C53.7187 48.4229 53.0084 49.0723 52.7445 49.0926C52.501 49.1129 51.0195 49.194 49.4569 49.2549C43.3483 49.4985 38.4574 50.2899 30.5629 52.3397C28.6552 52.8267 26.8491 53.2326 26.5649 53.2326C25.7329 53.2326 25.4285 54.1661 25.6314 56.0129C25.9358 58.8947 26.9302 61.6953 28.1479 63.1362C29.0002 64.1509 29.467 64.2524 30.9282 63.7653C34.0738 62.71 40.0606 62.7303 44.4848 63.8059C45.4386 64.0292 46.3518 64.293 46.4939 64.3742C46.7171 64.5162 46.7171 65.1453 46.5345 67.9662C46.4127 69.8536 46.2707 72.2078 46.2301 73.2225C46.1489 74.846 46.088 75.0895 45.6618 75.3534C44.6674 76.0028 42.4756 78.0119 41.4 79.2296C37.4224 83.8161 36.1844 86.9211 33.8506 98.1235C32.6735 103.806 32.6126 104.374 33.0997 104.374C33.6476 104.374 33.7897 103.806 34.6421 98.4888C35.6365 92.1367 36.8135 87.814 38.3356 84.8511C39.1677 83.2478 41.8668 80.1631 45.4995 76.6522C50.1266 72.1875 50.8572 71.5989 54.4087 69.4274C56.1134 68.3721 56.4584 68.1083 56.4584 67.8445C56.4584 67.7633 55.6669 68.1083 54.6928 68.636L52.9069 69.6101L52.8054 67.4589L52.704 65.3077L52.5416 67.0327C52.4401 67.9865 52.3995 69.0824 52.4401 69.468C52.501 70.1174 52.4401 70.2189 51.7298 70.5436C51.0195 70.9089 50.9384 70.9089 50.4716 70.6045C50.1875 70.4219 49.9642 70.0971 49.9642 69.8739C49.9642 69.6507 49.8831 69.468 49.7613 69.468C49.396 69.468 49.538 69.8333 50.1672 70.5436L50.776 71.2336L49.9845 71.7613C49.538 72.0657 48.5639 72.8572 47.8333 73.5675L46.4736 74.8257L46.6157 73.0195C47.2245 64.78 47.8739 61.1271 49.4163 57.0682C50.7963 53.4356 52.8663 50.2899 55.7278 47.4487C57.5949 45.602 59.3199 44.4046 62.9526 42.4564C64.3529 41.7258 65.6923 40.9343 65.9155 40.711C66.2402 40.4066 66.4229 39.879 66.6055 38.5801C67.2752 33.7501 65.0835 25.9774 62.1002 22.5883C60.8622 21.2083 60.7608 20.8632 61.329 20.2544C62.3843 19.1382 64.9211 18.3265 67.3564 18.3062C69.1626 18.2859 69.2438 18.3468 70.3397 20.4574C71.4761 22.6897 72.0241 24.0494 72.8156 26.708C74.1956 31.2945 74.3376 31.9845 74.4594 34.5213C74.5203 35.881 74.6623 37.0581 74.7638 37.119C74.845 37.1798 74.8653 36.5913 74.8044 35.7998C74.6421 34.0342 74.9668 33.8516 75.3118 35.5157C75.6974 37.5248 75.9409 38.2148 76.2453 38.2148C76.6106 38.2148 76.6106 38.4381 76.2453 35.3737C75.6771 30.5436 75.535 30.0768 72.6938 24.293C69.5482 17.9206 69.5482 17.9206 67.1535 17.9409C66.1591 17.9409 64.9414 18.1032 64.1296 18.3468ZM73.9115 27.5604C74.7029 29.2245 75.0885 30.4827 75.2509 32.0251C75.4335 33.6892 75.2509 33.3848 74.8247 31.3554C74.6421 30.4219 74.2362 29.1027 73.9115 28.4127C73.607 27.7227 73.2823 26.9515 73.2012 26.6877C72.9576 25.8353 73.2823 26.2412 73.9115 27.5604ZM51.6689 50.7973C49.9033 53.1108 47.8942 58.1641 47.2448 61.8577C47.0621 62.8318 46.8795 63.6842 46.8186 63.745C46.778 63.8059 46.6157 63.7653 46.4736 63.6436C46.3316 63.5421 45.8242 63.3392 45.3574 63.1768C44.5862 62.9333 44.4848 62.8318 44.4645 62.2839L44.4442 61.6547L44.3021 62.2636C44.2209 62.6897 44.0586 62.8724 43.7745 62.8724C43.3889 62.8724 43.3686 62.7506 43.4092 60.7415C43.4295 59.0165 43.4092 58.7932 43.2671 59.6253C43.1656 60.1732 43.0845 61.1068 43.0845 61.6953L43.0642 62.7506L42.3133 62.6492C40.9536 62.4462 40.9942 62.5477 41.1565 60.5994C41.2377 59.605 41.2377 58.8744 41.1565 58.9353C41.0753 59.0165 40.9536 59.7877 40.8724 60.6603L40.7303 62.2636L39.3706 62.3041L37.9906 62.3447L37.95 61.0865L37.9094 59.8282L37.8485 61.0865L37.7674 62.365H36.8744H35.9612L35.9409 61.3909C35.9206 60.8633 35.8394 60.153 35.7582 59.8282C35.6568 59.4629 35.6365 59.8891 35.6974 60.9038L35.8191 62.5883L35.0276 62.5274C34.3985 62.4868 34.2159 62.365 34.1144 61.9591C33.9723 61.4518 33.9723 61.4518 33.952 62.02C33.9318 62.5477 33.8709 62.5883 33.2823 62.5274C32.6938 62.4665 32.6126 62.365 32.1864 61.1474C31.9429 60.4168 31.7197 59.9703 31.7197 60.153C31.6994 60.3356 31.8414 60.8835 32.0038 61.3503C32.1662 61.8171 32.3082 62.2839 32.3082 62.365C32.3082 62.6086 30.7456 63.1768 30.0961 63.1768C29.5482 63.1768 29.5076 63.1159 29.3047 61.9997L29.0814 60.843L29.1626 62.0606C29.2438 63.1971 29.2438 63.258 28.9394 62.8724C28.0667 61.7359 27.1941 59.4832 26.707 57.1088C26.4229 55.7288 26.2199 54.4706 26.2605 54.2879C26.3214 54.0038 31.2529 52.7861 38.8633 51.2032C41.5218 50.6552 46.3113 50.087 52.2372 49.5999C52.501 49.5796 52.359 49.8841 51.6689 50.7973Z" fill="#FF0051"/>
<path id="Vector_79" d="M33.6883 60.8836C33.7897 61.3097 33.8303 61.3503 33.8912 61.0662C33.9318 60.8633 33.8912 60.6197 33.7695 60.498C33.6477 60.3762 33.6274 60.498 33.6883 60.8836Z" fill="#FF0051"/>
<path id="Vector_80" d="M65.185 19.3818C62.8308 19.808 61.6944 20.2747 61.6132 20.8024C61.5726 21.188 61.8364 21.2894 62.0394 20.9647C62.1002 20.843 62.0394 20.7618 61.8973 20.7618C61.3088 20.7415 63.2164 20.1935 64.3529 20.0718C65.8547 19.8891 67.6203 19.4021 67.6203 19.1382C67.6203 19.0165 67.5594 18.9353 67.4782 18.9556C67.3768 18.9759 66.362 19.1585 65.185 19.3818Z" fill="#FF0051"/>
<path id="Vector_81" d="M66.9912 20.295C66.2403 20.6603 65.0226 21.1068 64.2718 21.2691C63.5209 21.4112 62.8512 21.5939 62.7903 21.6547C62.2017 22.2636 65.0429 21.6953 66.6665 20.9038L68.0465 20.2138L68.6147 21.0459C69.2236 21.9389 70.9283 25.5715 71.6589 27.5401C72.5112 29.8333 72.9374 32.1469 73.0389 35.0084C73.1606 37.9916 73.5056 38.6816 73.5056 35.9216C73.5056 32.8978 73.1403 30.6248 72.2677 27.9054C71.253 24.8003 69.3859 20.5588 68.7771 19.9906L68.3306 19.605L66.9912 20.295Z" fill="#FF0051"/>
<path id="Vector_82" d="M94.3073 28.1083C93.9826 28.3315 93.8608 28.4533 94.084 28.3924C94.287 28.3113 94.5914 28.3721 94.7335 28.4939C94.9567 28.6765 95.0176 28.6157 95.0176 28.1895C95.0176 27.9054 94.9973 27.6618 94.977 27.6821C94.9364 27.6821 94.6523 27.8851 94.3073 28.1083Z" fill="#FF0051"/>
<path id="Vector_83" d="M78.3154 39.3513C77.3413 40.1022 76.5701 40.7313 76.6107 40.7922C76.7121 40.8734 80.6086 38.2554 80.6086 38.0931C80.6086 37.7887 79.878 38.1946 78.3154 39.3513Z" fill="#FF0051"/>
<path id="Vector_84" d="M72.2676 39.1281C70.7862 39.8993 70.6847 40.3052 72.1662 39.5949C72.8968 39.2296 73.5056 38.8643 73.5056 38.7831C73.5056 38.5396 73.2824 38.6004 72.2676 39.1281Z" fill="#FF0051"/>
<path id="Vector_85" d="M72.9374 40.0413C71.4153 41.3199 71.05 41.7664 72.0647 41.1169C72.8562 40.6096 74.8045 38.8237 74.5812 38.8237C74.4798 38.8237 73.7289 39.3716 72.9374 40.0413Z" fill="#FF0051"/>
<path id="Vector_86" d="M93.1911 53.2529C92.359 53.6994 91.3443 54.3894 90.9181 54.7547C90.5122 55.1403 89.8019 55.6273 89.3757 55.8506C88.5031 56.297 86.291 58.2859 86.291 58.6309C86.291 58.7527 86.6766 58.4685 87.1637 58.0018C88.2595 56.9465 90.9993 55.0388 92.1155 54.572C93.6172 53.9226 93.4955 54.3488 91.8516 55.5056C87.6304 58.5091 86.3722 60.295 82.0495 69.326C81.1768 71.1525 80.7913 71.6801 79.3707 73.1007C78.4574 74.0139 77.5848 74.7445 77.4427 74.7445C77.2803 74.7445 77.1586 74.8257 77.1586 74.9069C77.1586 75.1098 74.8653 76.6116 73.81 77.119C73.4244 77.3016 73.1809 77.5451 73.2418 77.6466C73.3027 77.7684 73.2824 77.7887 73.1606 77.7278C73.0591 77.6466 72.3285 77.8699 71.5371 78.1946C70.7659 78.5193 68.7162 79.0672 67.0114 79.4122C64.3123 79.9602 63.6426 80.1834 61.6538 81.1778C59.5026 82.2534 59.3402 82.3143 57.6761 82.3549C55.6467 82.3955 54.2666 82.8217 51.2834 84.3234C47.529 86.1905 44.708 88.017 41.8466 90.4726C39.9998 92.0353 35.9206 96.3376 36.083 96.5203C36.1642 96.5812 36.57 96.2159 37.0165 95.6882C38.5183 93.9632 39.6548 92.847 40.771 91.9541C41.4001 91.467 42.4554 90.6147 43.1454 90.0464C44.8095 88.6461 46.6563 87.4893 50.0657 85.6629C53.2519 83.9784 54.429 83.4711 56.7223 82.8622C58.569 82.3549 59.1982 82.4158 57.7573 82.9434C55.2611 83.877 50.9181 86.2311 47.671 88.4026C46.3519 89.2752 44.6675 90.3102 43.9369 90.6958C41.8669 91.7714 39.2692 93.9835 37.8892 95.8506C36.8542 97.2712 34.9465 101.026 34.5203 102.507C34.0333 104.192 34.0333 104.374 34.5203 104.374C34.8044 104.374 34.9668 104.131 35.1292 103.4C35.6771 101.269 38.6401 96.5812 40.913 94.3082C44.7283 90.4726 46.2098 89.4173 51.4255 86.7384C54.8755 84.9728 61.4102 82.3549 63.7238 81.8272C64.6979 81.604 66.565 81.3808 67.8638 81.2996C69.9541 81.1981 70.4006 81.2387 71.6182 81.6243C74.2565 82.4767 75.9409 84.1814 77.5645 87.6314C78.9648 90.5741 79.2286 92.0555 79.3098 97.2712C79.3707 101.086 79.3301 101.797 78.9851 102.994C78.6807 104.11 78.6604 104.374 78.8836 104.374C79.0459 104.374 79.2489 103.948 79.391 103.197C79.533 102.568 79.6548 101.959 79.6751 101.858C79.6954 101.756 80.0201 102.162 80.4057 102.771C81.1971 104.009 81.603 104.476 81.7451 104.313C81.806 104.273 81.4204 103.502 80.8724 102.649C79.9795 101.188 79.9186 100.985 79.8983 99.7268C79.8983 98.5091 79.9389 98.3874 80.3042 98.4482C80.5274 98.4685 81.258 98.5497 81.9277 98.6106C82.5974 98.6715 83.4498 98.8541 83.7948 99.0165C86.636 100.295 88.3407 100.599 90.0454 100.133C92.014 99.605 95.0175 97.19 95.0175 96.1347C95.0175 95.6882 94.9364 95.7288 94.0637 96.7029C92.9475 97.9815 92.1763 98.5294 90.7152 99.1382C89.3554 99.6862 87.0825 99.7268 85.3981 99.2194C83.8354 98.7527 83.2672 98.3265 83.2469 97.6162V97.0682L84.9313 97.0276C85.8445 97.0073 86.2301 96.9668 85.7836 96.9262C85.3372 96.8856 84.5863 96.8044 84.1195 96.7435C83.2672 96.6421 83.2469 96.6218 83.2469 95.8709C83.2469 95.12 83.2875 95.0794 84.018 94.9576C84.4239 94.8967 85.5401 94.8359 86.4939 94.8156L88.219 94.7953L87.0013 94.5923C86.3316 94.4909 85.2154 94.4503 84.5051 94.4909C83.5107 94.572 83.186 94.5314 83.1048 94.2879C83.0439 94.1256 83.0642 93.9226 83.1657 93.8211C83.328 93.6791 85.5604 93.4356 86.8592 93.4153C87.1231 93.4153 87.2854 93.3341 87.2042 93.2123C87.1434 93.1108 86.981 93.0703 86.8389 93.1108C86.6969 93.1514 85.8039 93.2326 84.8298 93.2935C83.3483 93.395 83.0439 93.3747 83.0439 93.1311C83.0439 92.9282 83.3889 92.7861 84.1601 92.705C84.7689 92.6238 85.3372 92.4614 85.3981 92.36C85.4792 92.2382 85.0328 92.2179 84.2819 92.3194C83.0439 92.4614 83.0439 92.4614 83.0439 91.9135C83.0439 91.6294 83.1657 91.3858 83.3077 91.3655C83.4295 91.3655 84.7486 91.2235 86.1895 91.0814L88.8278 90.7973L85.8445 90.9191L82.841 91.0205V90.5132C82.841 90.0667 82.9627 89.9449 83.7136 89.7623C84.1804 89.6405 85.3372 89.3158 86.291 89.052C87.2448 88.7882 88.2393 88.5243 88.5234 88.4838C88.9496 88.4026 88.9293 88.4026 88.3813 88.362C88.0363 88.362 86.981 88.5243 86.0475 88.7273C85.1139 88.9302 84.018 89.1535 83.6122 89.2144C82.8613 89.3361 82.841 89.3158 82.841 88.7273C82.841 88.2402 82.9627 88.0576 83.5107 87.8546C84.1601 87.5705 85.8242 87.2661 88.3204 86.9414L89.6396 86.7587H88.3204C87.1231 86.7384 84.8907 87.0429 83.4092 87.4285C82.9019 87.5502 82.841 87.5096 82.841 87.1037C82.841 86.4543 83.0236 86.2311 83.8557 85.8049C84.2413 85.602 84.4645 85.399 84.3225 85.3584C84.2007 85.3179 83.7948 85.4193 83.4498 85.602L82.8004 85.947L82.9424 85.054C83.0236 84.567 83.186 84.1205 83.2875 84.0596C83.3889 83.9784 84.7892 83.7349 86.3722 83.4711C87.9754 83.2275 89.396 82.9434 89.5584 82.842C89.7613 82.6999 89.6193 82.6796 89.1322 82.7608C88.7466 82.8217 87.4275 83.0043 86.1895 83.187C84.9719 83.3493 83.7542 83.5522 83.5107 83.6131C83.1048 83.6943 83.0439 83.6334 83.0439 83.0855C83.0439 82.7405 83.1251 82.4564 83.2266 82.4564C83.7339 82.4564 88.1581 81.604 88.564 81.4416C88.9698 81.259 88.9293 81.2387 88.3204 81.3402C87.9348 81.4011 86.9201 81.5228 86.0881 81.6446C85.256 81.7461 84.221 81.9084 83.7948 81.9693C83.0236 82.1114 83.0236 82.1114 83.1657 81.5228C83.3483 80.7516 83.3686 80.7313 84.7689 80.4269C86.1286 80.1428 87.5695 79.6152 87.4275 79.4731C87.3666 79.4122 87.0013 79.4934 86.5751 79.6152C85.4589 80.0008 83.4498 80.3863 83.4498 80.224C83.4498 79.8993 85.0936 77.606 85.9663 76.7131C86.4737 76.1854 86.8998 75.6172 86.8998 75.4345C86.8998 74.5822 88.2393 70.6045 89.051 69.123C90.7354 65.9774 92.5822 63.0145 93.7999 61.4721C94.5102 60.5588 95.0175 59.7471 95.0175 59.4427C95.0175 58.9759 94.9567 58.9556 92.9475 58.8135L90.8572 58.6715L91.4255 58.1844C91.8719 57.7988 92.2372 57.6974 93.0896 57.6974C93.6984 57.6974 94.2464 57.5959 94.3275 57.4741C94.4087 57.3321 94.3275 57.2915 94.0434 57.3726C93.5564 57.535 92.5416 57.3118 92.6837 57.0885C92.7243 57.0073 93.2722 56.6826 93.9014 56.3985C94.6928 55.9926 95.0175 55.7288 95.0175 55.4447C95.0175 55.0794 94.8958 55.0997 93.5564 55.81C91.8719 56.6826 89.2743 59.0571 87.8537 61.0256C86.981 62.2636 86.4534 63.1362 84.0383 67.398C83.8151 67.7633 83.3686 68.8998 83.0236 69.9348C81.8871 73.2834 81.3595 74.1966 79.1677 76.4696C77.3209 78.3975 75.535 80.9749 76.2656 80.6908C76.4483 80.6299 76.57 80.8531 76.6715 81.4416C76.9353 83.0855 78.5995 84.1814 79.6548 83.4102C79.9592 83.2072 79.878 83.1667 79.1271 83.2275C78.3154 83.2884 78.1936 83.2478 77.7471 82.639C77.4021 82.1519 77.2601 81.604 77.1992 80.7111L77.118 79.4325L79.3707 77.0987C81.2174 75.1504 81.7654 74.4401 82.4351 73.0601C82.8816 72.1266 83.2469 71.2133 83.2469 71.051C83.2469 70.8683 83.3077 70.5639 83.3686 70.4016C83.4904 70.0972 83.531 70.0972 83.7745 70.4219C83.9166 70.6248 84.0586 70.8683 84.0586 70.9698C84.0586 71.0916 83.9166 70.9901 83.7542 70.7669C83.4904 70.4016 83.4701 70.4016 83.4498 70.7466C83.4498 71.2742 83.9978 72.2686 84.4442 72.5122C84.6675 72.6136 85.0936 72.7151 85.4183 72.7151H85.9866L85.4183 72.3498C84.8095 71.9845 84.2819 70.9089 84.1195 69.6507C83.9978 68.6968 84.2616 68.5548 85.3778 68.9607C85.8648 69.1636 86.3722 69.2651 86.5345 69.2042C86.7172 69.1433 86.6766 69.0621 86.3925 68.9607C84.8298 68.3924 84.2616 68.1083 84.2616 67.8851C84.2616 67.5807 84.4645 67.5807 85.1951 67.8445C86.0678 68.1895 87.3057 68.4127 87.3057 68.2504C87.3057 68.1692 87.0622 68.0474 86.7578 67.9865C85.6213 67.7633 84.6675 67.256 84.7892 66.9312C84.8907 66.708 85.1139 66.6674 85.7025 66.7486C86.636 66.911 86.8389 66.4848 85.9054 66.3021C85.4589 66.2007 85.3575 66.0992 85.4183 65.7948C85.5401 65.328 85.8039 65.3077 86.7578 65.7136C88.1784 66.3021 88.4016 65.9368 87.0013 65.3077C86.4939 65.0845 86.0881 64.8003 86.0881 64.6786C86.0881 64.1509 86.5954 64.0495 88.0769 64.2321C88.8887 64.3336 89.7207 64.3539 89.9034 64.2727C90.1266 64.1712 89.6801 64.0698 88.6857 63.9886C87.8131 63.9277 87.0622 63.8059 87.0013 63.745C86.9201 63.6639 86.9607 63.4203 87.1028 63.1971C87.3057 62.8115 87.5087 62.7709 89.3351 62.7709C90.431 62.7709 91.3849 62.6897 91.4457 62.6086C91.4863 62.5274 90.6137 62.4868 89.4975 62.5274L87.4478 62.6086L88.0363 61.7968C88.5437 61.0865 88.7872 60.9444 89.741 60.7618C91.5066 60.4168 93.394 60.2544 93.394 60.4574C93.394 60.5588 93.1708 60.8836 92.9069 61.1677C91.9531 62.1824 89.5787 65.9368 88.6654 67.8445C88.1175 68.981 87.6101 70.4422 87.4072 71.396C86.5345 75.7187 86.5548 75.6578 85.3778 76.6522C84.221 77.6466 83.5513 78.6816 82.841 80.569C82.2524 82.1317 82.0901 85.947 82.4351 90.8785C82.7801 95.9926 82.8207 96.8653 82.6989 97.7176C82.6177 98.3671 82.5163 98.4888 82.1104 98.4888C81.8466 98.4888 81.2783 98.3468 80.8318 98.1641L80.0404 97.8597L79.9186 95.6882C79.7765 93.2529 79.5533 91.7308 79.1068 90.3102C78.8024 89.3767 78.8227 89.3361 79.1677 89.4579C79.7157 89.6202 80.6086 88.707 80.6086 87.9561C80.6086 86.8196 78.5183 85.947 77.9906 86.8602C77.8283 87.1443 77.7674 87.1037 77.5036 86.4746C76.5092 84.1205 74.4797 82.0099 72.5721 81.3402L71.8415 81.0966L72.9171 80.914C73.9927 80.7313 73.9521 80.7313 72.085 80.6908C68.777 80.5893 68.4726 80.3458 70.6847 79.4934C72.5924 78.7831 74.845 77.5857 76.8542 76.2463C79.6751 74.3387 81.0957 72.7557 81.9074 70.6045C82.4757 69.1027 85.7836 62.8318 86.8187 61.2894C88.4625 58.8744 90.5528 56.9059 93.5766 54.9576C94.9567 54.0647 95.0175 54.0038 95.0175 53.2326C95.0175 52.7861 94.9567 52.4208 94.8755 52.4208C94.774 52.4208 94.0231 52.8064 93.1911 53.2529ZM94.2058 59.6253C93.7796 60.0718 93.5564 60.1327 92.2981 60.1327C91.5066 60.1327 90.4513 60.2341 89.9643 60.3559C89.4772 60.4574 89.0307 60.5183 88.9901 60.4574C88.9293 60.4168 89.2743 60.0921 89.7613 59.7471C90.5731 59.1382 90.6949 59.118 92.6431 59.118H94.6725L94.2058 59.6253ZM84.4645 71.9642C84.8298 72.3904 84.8704 72.4919 84.6066 72.3904C84.2616 72.2686 83.8557 71.7004 83.8557 71.3757C83.8557 71.2945 83.876 71.2742 83.9166 71.3148C83.9369 71.3554 84.1804 71.6598 84.4645 71.9642ZM64.7385 80.9952C64.9008 81.0966 64.495 81.259 63.7035 81.4011C61.7552 81.7664 61.2276 81.6852 62.4452 81.2387C63.5614 80.8328 64.3326 80.7516 64.7385 80.9952ZM79.7562 87.1646C80.3448 87.7532 79.6142 89.1129 78.8836 88.8288C78.5183 88.6867 78.0921 87.6111 78.2545 87.2255C78.3965 86.8602 79.4112 86.8196 79.7562 87.1646Z" fill="#FF0051"/>
<path id="Vector_87" d="M58.2849 63.7247C58.1429 64.8206 58.082 66.1195 58.1226 66.6268C58.1632 67.1951 58.2849 66.5051 58.427 64.7192C58.569 63.1565 58.6502 61.8577 58.6096 61.8171C58.569 61.7765 58.427 62.6289 58.2849 63.7247Z" fill="#FF0051"/>
<path id="Vector_88" d="M54.835 66.3021C54.835 66.6877 54.8958 67.053 54.9973 67.1139C55.0785 67.1545 55.1191 66.8501 55.0785 66.4036C54.977 65.4295 54.835 65.3686 54.835 66.3021Z" fill="#FF0051"/>
<path id="Vector_89" d="M49.7614 67.0124C49.7614 67.5604 49.7005 68.291 49.6396 68.636C49.5584 68.981 49.599 69.2651 49.7005 69.2651C49.802 69.2651 49.9034 68.5345 49.944 67.6415C49.9643 66.7486 49.9237 66.018 49.8629 66.018C49.802 66.018 49.7614 66.4645 49.7614 67.0124Z" fill="#FF0051"/>
<path id="Vector_90" d="M55.0582 67.7633C55.0582 67.9866 55.1191 68.0474 55.1799 67.8851C55.2408 67.743 55.2205 67.5604 55.1597 67.4995C55.0988 67.4183 55.0379 67.5401 55.0582 67.7633Z" fill="#FF0051"/>
<path id="Vector_91" d="M85.4184 73.9937C85.3575 74.156 84.7081 75.2113 83.9572 76.3478C82.6381 78.3366 82.5772 78.3975 81.5219 78.7222C80.3651 79.0469 79.391 79.6761 79.391 80.1022C79.391 80.5081 80.081 81.0358 80.6289 81.0358C81.3798 81.0358 81.9887 80.5081 82.5772 79.3513C82.8613 78.7628 83.3484 77.9307 83.6528 77.4843C84.4646 76.2463 85.7228 73.9125 85.6213 73.811C85.5807 73.7501 85.4793 73.8516 85.4184 73.9937ZM81.8263 79.331C81.8263 80.224 81.116 80.6705 80.4057 80.224C80.1622 80.0819 80.1825 79.9602 80.6086 79.534C81.1363 78.9455 81.8263 78.844 81.8263 79.331Z" fill="#FF0051"/>
<path id="Vector_92" d="M46.6765 76.4493C44.1601 78.6816 40.71 82.3955 40.913 82.5984C40.9536 82.639 41.4406 82.2128 41.9683 81.604C42.5162 81.0155 44.2818 79.2296 45.9054 77.6466C47.5289 76.0434 48.7872 74.7445 48.706 74.7445C48.6451 74.7445 47.7319 75.5157 46.6765 76.4493Z" fill="#FF0051"/>
<path id="Vector_93" d="M75.5351 81.4416C75.4133 81.6649 75.3727 81.8475 75.4133 81.8475C75.4742 81.8475 75.6162 81.6649 75.738 81.4416C75.8598 81.2184 75.9004 81.0358 75.8598 81.0358C75.7989 81.0358 75.6568 81.2184 75.5351 81.4416Z" fill="#FF0051"/>
<path id="Vector_94" d="M65.1241 83.187C64.2312 83.3493 62.8309 83.7146 61.9785 83.9987C60.0709 84.6278 50.7964 88.707 48.8481 89.742C48.077 90.1682 47.0217 90.7364 46.5143 91.0002C45.3981 91.5685 40.2637 96.7029 38.9648 98.5091C37.7675 100.194 37.0369 101.614 36.5701 103.136C36.286 104.09 36.2657 104.374 36.4686 104.374C36.6107 104.374 36.8745 103.806 37.0775 103.096C37.5036 101.533 38.1937 100.173 39.2692 98.6918C40.3651 97.2103 45.9867 91.5888 46.3722 91.5888C46.5346 91.5888 46.7172 91.5279 46.7578 91.4264C46.839 91.2438 50.2687 89.5594 51.7705 88.9505C52.3793 88.707 53.9826 88.017 55.322 87.3879C58.9953 85.6831 61.5118 84.7496 64.1297 84.0596C66.1389 83.532 66.7883 83.4508 68.3306 83.5117C69.8527 83.5725 70.2992 83.674 71.0704 84.1408C73.0389 85.2976 75.1495 88.0576 76.1845 90.8176C76.7325 92.2991 76.8136 92.8267 76.8948 95.1403L76.9963 97.7785L76.3266 98.1844C75.9613 98.4077 75.3525 98.7932 74.9466 99.0368C74.0739 99.5847 73.2824 99.6253 71.598 99.1788C70.4209 98.8744 69.6701 98.4279 66.6056 96.2362C65.5503 95.465 64.5559 94.8562 64.7791 95.0997C65.0227 95.3635 69.2236 98.4482 69.8933 98.8541C70.2992 99.118 70.6848 99.4832 70.7254 99.6659C70.8065 99.9703 70.8268 99.9703 70.8471 99.6253C70.8674 99.3615 70.9689 99.3006 71.2327 99.4021C71.7807 99.6253 73.8304 99.7674 74.3783 99.6253C74.6625 99.5644 75.3322 99.1788 75.8395 98.773L76.8136 98.0424L76.6716 99.2397C76.5092 100.579 75.7989 103.461 75.5148 104.009C75.3525 104.293 75.393 104.374 75.6975 104.374C75.9816 104.374 76.1642 104.029 76.5092 102.994C77.6457 99.4832 77.8892 92.847 76.9963 90.3305C74.7436 84.0799 71.3951 82.0505 65.1241 83.187ZM72.288 84.5061C72.288 84.6076 72.0648 84.4858 71.7807 84.2423C71.4965 83.9987 71.2733 83.7755 71.2733 83.7349C71.2733 83.6943 71.4965 83.8161 71.7807 83.9987C72.0648 84.1814 72.288 84.4046 72.288 84.5061Z" fill="#FF0051"/>
<path id="Vector_95" d="M61.7147 87.469C62.1003 87.8343 62.5062 88.1388 62.628 88.1388C62.7497 88.1388 62.6077 87.9967 62.3438 87.7938C62.0597 87.6111 61.6538 87.327 61.4103 87.1443C61.1871 86.9617 61.3088 87.124 61.7147 87.469Z" fill="#FF0051"/>
<path id="Vector_96" d="M64.0688 87.7329C63.8659 87.9561 63.805 88.1388 63.9267 88.1388C64.0485 88.1388 64.2514 87.9561 64.3732 87.7329C64.495 87.5096 64.5559 87.327 64.5153 87.327C64.4747 87.327 64.2717 87.5096 64.0688 87.7329Z" fill="#FF0051"/>
<path id="Vector_97" d="M63.5614 88.6461C63.5614 88.7476 63.6629 88.9911 63.7643 89.1535C63.8658 89.3158 63.9673 89.3564 63.9673 89.2549C63.9673 89.1332 63.8658 88.9099 63.7643 88.7476C63.6629 88.5852 63.5614 88.5243 63.5614 88.6461Z" fill="#FF0051"/>
<path id="Vector_98" d="M61.7553 90.1073C61.7553 90.3508 61.4712 91.3047 61.1262 92.2585C60.8015 93.192 60.4159 94.4503 60.2941 95.0388C60.1723 95.6679 60.01 96.0129 59.9085 95.8709C59.8273 95.7288 59.7056 96.0738 59.6447 96.6218C59.4012 98.6309 57.7979 101.046 56.215 101.797C55.2408 102.264 54.287 102.223 51.9937 101.675C49.7614 101.127 49.2946 100.904 47.6508 99.6253C47.0014 99.1179 46.3722 98.6918 46.2708 98.6918C46.0678 98.6918 47.7928 100.092 49.1728 101.046C49.5787 101.31 50.6543 101.817 51.5879 102.142C52.5011 102.467 53.8202 103.075 54.5102 103.481C55.1799 103.887 56.0729 104.252 56.4585 104.313C57.2906 104.435 57.1079 104.252 55.5452 103.42L54.5305 102.872L55.4235 102.71C55.8902 102.629 56.7223 102.304 57.25 102.02C58.285 101.391 60.1115 99.5644 60.1115 99.1382C60.1115 98.9556 60.3347 99.0571 60.7 99.4224C61.045 99.7471 61.8771 100.234 62.5874 100.498C63.2977 100.762 64.5965 101.289 65.4691 101.675C66.3621 102.04 67.113 102.304 67.1536 102.284C67.2347 102.203 63.5209 100.539 62.0597 99.9906C60.8015 99.5238 60.497 98.9556 61.1059 98.1235C61.9379 96.9465 64.3327 94.9373 65.8141 94.1661C66.6462 93.7197 67.1536 93.4356 66.9709 93.4964C66.7274 93.5573 66.6056 93.4558 66.5447 93.05C66.4636 92.502 66.4636 92.502 66.423 93.0094C66.4027 93.4153 66.1389 93.6588 65.0633 94.227C64.3327 94.6126 63.0135 95.607 62.1409 96.3985C61.2682 97.2103 60.4768 97.88 60.3753 97.88C60.1115 97.88 60.7812 94.1864 61.4103 92.157C61.7147 91.2032 61.9379 90.2291 61.8771 90.0261C61.7959 89.7217 61.7756 89.742 61.7553 90.1073Z" fill="#FF0051"/>
<path id="Vector_99" d="M47.7724 92.705C48.3001 93.2732 48.8683 93.9226 49.051 94.1662C49.3554 94.5923 51.1007 95.4041 51.3036 95.1809C51.3645 95.12 51.0601 94.9576 50.6339 94.8359C50.1672 94.6735 49.4163 94.1256 48.7466 93.4356C48.1377 92.8064 47.4477 92.157 47.2245 91.9947C47.0013 91.8323 47.2448 92.157 47.7724 92.705Z" fill="#FF0051"/>
<path id="Vector_100" d="M68.3915 92.7253C68.0668 92.8876 67.8232 93.0703 67.8232 93.1108C67.8232 93.3138 68.148 93.192 68.635 92.8064C69.2438 92.3397 69.1424 92.2991 68.3915 92.7253Z" fill="#FF0051"/>
<path id="Vector_101" d="M52.3995 95.7085C52.3995 95.7694 52.6431 95.9521 52.9272 96.155C53.2316 96.3376 53.394 96.3985 53.3331 96.2768C53.191 96.0535 52.3995 95.5665 52.3995 95.7085Z" fill="#FF0051"/>
<path id="Vector_102" d="M44.3022 98.3671C44.3428 98.4076 44.7487 98.4888 45.1952 98.5497C45.7634 98.6512 45.8852 98.6309 45.6011 98.4888C45.2155 98.3265 44.1196 98.2047 44.3022 98.3671Z" fill="#FF0051"/>
<path id="Vector_103" d="M82.9221 99.8282C83.1048 101.817 84.363 103.096 86.6563 103.644C87.671 103.887 88.2595 103.928 88.9292 103.786L89.8425 103.603L88.7263 103.583C86.3519 103.542 83.673 101.939 83.3483 100.376C83.2671 100.051 83.1251 99.6253 83.0236 99.4021C82.8815 99.0977 82.8612 99.1991 82.9221 99.8282Z" fill="#FF0051"/>
<path id="Vector_104" d="M94.429 102.04C94.2058 102.487 93.7796 103.197 93.4955 103.603C93.1708 104.09 93.0693 104.374 93.2317 104.374C93.3737 104.374 93.6579 104.07 93.8811 103.704C94.8958 101.939 95.0379 101.675 94.9567 101.452C94.9161 101.33 94.6726 101.594 94.429 102.04Z" fill="#FF0051"/>
<path id="Vector_105" d="M68.0261 102.791C68.0261 102.832 68.4523 103.217 69.0002 103.664C69.5279 104.09 69.7714 104.232 69.5482 103.989C69.1626 103.522 68.0261 102.649 68.0261 102.791Z" fill="#FF0051"/>
<path id="Vector_106" d="M94.7537 103.441C94.6522 103.867 94.6319 104.273 94.6928 104.334C94.9363 104.557 95.0378 104.192 94.9769 103.441L94.9161 102.649L94.7537 103.441Z" fill="#FF0051"/>
<path id="Vector_107" d="M46.9607 104.313C47.7116 104.354 48.9901 104.354 49.8019 104.313C50.6136 104.293 50.0048 104.252 48.4422 104.252C46.8795 104.252 46.2098 104.273 46.9607 104.313Z" fill="#FF0051"/>
</g>
</g>
</svg>
